<svg id="Layer_1" xmlns="http://www.w3.org/2000/svg" viewBox="0 0 370.1 77.8"><style>.st0{fill:#094288}.st1{fill:url(#SVGID_1_)}.st2{fill:url(#SVGID_2_)}.st3{fill:#fff}</style><path class="st0" d="M123.6 11.9c-5 0-9.4.4-14.6 1.4l-1.4.3v51h8.4V46.2h7.6c12.4 0 19.5-6.2 19.5-17.1 0-10.9-7.1-17.2-19.5-17.2zM116 20c2.4-.3 4.4-.4 7.3-.4 7.3 0 11.2 3.3 11.2 9.5s-3.9 9.5-11.2 9.5H116V20zm36.3-9.4h8.2v54h-8.2zm34 13c-4.3 0-11.5 1.3-11.8 1.4l-1.4.3V33l2-.4c.1 0 7.3-1.3 11.2-1.3 6.8 0 7.8 1.9 7.8 6.4V40H185c-11.5 0-15.6 6.6-15.6 12.8 0 5.7 2.7 12.5 15.6 12.5 3.1 0 9.3-.3 16.1-2.1l1.2-.3V37.7c.1-12.5-8.5-14.1-16-14.1zm-1.2 34.2c-4.7 0-7.3-1.8-7.3-5 0-3.5 2.8-5.4 7.8-5.4h8.6v9.7c-2.5.4-6.5.7-9.1.7zm41.3-.4c-1.9 0-3.2-.3-3.2-4.9V31.8h10v-7.3h-10v-9.7l-8.2 3.3v6.4h-5.7v7.3h5.7v20.7c0 8.6 3.4 12.8 10.3 12.8 2.1 0 4.3-.3 6.9-1l1.2-.3v-7.7l-2 .4c-1.7.3-3.8.7-5 .7zm46.2-20c3.5-2.4 5.3-6.1 5.3-10.6 0-6.7-3.2-14.7-18.5-14.7-5.2 0-9.9.5-14.4 1.6l-1.3.3v49.1l1.3.3c5 1.1 10 1.7 15.3 1.7 16.1 0 19.5-8.5 19.5-15.6 0-5.1-2.8-9.7-7.2-12.1zm-12 20.1c-3.7 0-6.6-.4-8.5-.7V41.9h7.7c10.1 0 11.4 4 11.4 7.5 0 5.3-3.7 8.1-10.6 8.1zm-.8-23.1h-7.7V20.2c2.3-.4 4.9-.7 7.7-.7 6.2 0 9.6 2.6 9.6 7.4 0 4.8-3.4 7.5-9.6 7.5zm48-10.8c-11.4 0-20.1 8.9-20.1 20.8 0 12 8.6 21 20.1 21 11.4 0 20-9 20-21 0-11.9-8.6-20.8-20-20.8zm0 34.3c-7.5 0-11.6-7-11.6-13.6s4-13.4 11.6-13.4 11.5 6.7 11.5 13.4c0 6.8-4 13.6-11.5 13.6zm47.6-14.4l13.3-19h-9.6l-8.5 12.3-8.4-12.3h-9.7l13.3 19-14.7 21.1h9.5l10-14.4 9.8 14.4h9.7z"/><linearGradient id="SVGID_1_" gradientUnits="userSpaceOnUse" x1="32.679" y1="79.592" x2="32.679" y2="-2.68"><stop offset="0" stop-color="#4692c2"/><stop offset=".454" stop-color="#094288"/><stop offset=".521" stop-color="#094288"/><stop offset=".528" stop-color="#3b639d"/><stop offset=".693" stop-color="#4692c2"/><stop offset="1" stop-color="#80cfe3"/></linearGradient><path class="st1" d="M65.4.5l-36-.1s-2.3-.1-4.1.8c-1.5.8-2.9 2.6-2.9 2.6l-20.7 30s-1.5 2-1.6 5c-.2 2.7 1.5 5.5 1.5 5.5L20 73.9s1.2 1.6 2.7 2.6c1.6 1.1 4.6 1.2 4.6 1.2l36.5.1-25.7-38.9L65.4.5z"/><radialGradient id="SVGID_2_" cx="39.813" cy="37.057" r="42.541" gradientUnits="userSpaceOnUse"><stop offset=".086" stop-color="#fff"/><stop offset=".15" stop-color="#fbfdfe"/><stop offset=".215" stop-color="#eff9fb"/><stop offset=".281" stop-color="#daf1f7"/><stop offset=".346" stop-color="#bee7f0"/><stop offset=".38" stop-color="#ace0ec"/><stop offset=".429" stop-color="#97cfe3"/><stop offset=".529" stop-color="#61a6cd"/><stop offset=".577" stop-color="#4692c2"/><stop offset=".736" stop-color="#094288"/><stop offset="1" stop-color="#051e42"/></radialGradient><path class="st2" d="M65.2.3C62.5.3 61 2.7 61 2.7L43.7 26.9l-4.6 6.4s-1.7 2.5-1.7 5.6c0 3.6 1.4 5.6 1.4 5.6l4.9 7.4 15.9 23.7s1.5 2.2 4.2 2.2c2.6 0 3.9-1.8 3.9-1.8l18.8-31.2s1.7-2.8 2-5.9c.3-3.1-1.1-5.9-1.1-5.9L69.6 2.8S68.2.3 65.2.3z"/><path class="st3" d="M60.5 76.2L41.2 44.5s-1.3-2-1.3-5.5c0-3.1 1.6-5.6 1.6-5.6L61.9 2.2s1-2.1 4.4-1.7c-.4-.1-.8-.1-1.4-.1-2.7 0-4.2 2.4-4.2 2.4L38.8 33.3s-1.7 2.5-1.7 5.6c0 3.6 1.4 5.6 1.4 5.6l20.8 31.1s1.5 2.2 4.2 2.2c.5 0 1.1-.1 1.5-.2-1.9.4-3.4-.5-4-1-.3-.2-.5-.4-.5-.4z"/><path class="st3" d="M61.3 76.2L41.9 44.5s-1.3-2-1.3-5.5c0-3.1 1.6-5.6 1.6-5.6L62.6 2.2S63.6.1 67 .5c-.4-.1-.8-.1-1.4-.1-3.3 0-4.2 2.4-4.2 2.4L39.5 33.3s-1.7 2.5-1.7 5.6c0 3.6 1.4 5.6 1.4 5.6L60 75.6s1.5 2.2 4.2 2.2c.5 0 1.1-.1 1.5-.2-1.9.4-3.4-.5-4-1l-.4-.4z"/></svg>