<svg id="Слой_1" xmlns="http://www.w3.org/2000/svg" xmlns:xlink="http://www.w3.org/1999/xlink" viewBox="0 0 111.3 66.2"><style>.st0,.st1,.st2{clip-path:url(#SVGID_2_);fill:#fff}.st1,.st2{fill:none;stroke:#08baff;stroke-width:2;stroke-miterlimit:10}.st2{stroke:#063162;stroke-linecap:round}.st3{fill:#383d44}.st4{font-family:&apos;Rubik-Medium&apos;}.st5{font-size:13.6752px}.st6{font-size:9.7166px}.st7,.st8,.st9{clip-path:url(#SVGID_4_)}.st7{stroke:#063162;stroke-width:2;stroke-miterlimit:10;fill:none}.st8{fill:#fff}.st9{fill:none;stroke:#063162;stroke-width:2;stroke-miterlimit:10}.st10,.st9{stroke-linecap:round}.st10,.st11{clip-path:url(#SVGID_4_);fill:none;stroke:#08baff;stroke-width:2;stroke-miterlimit:10}</style><defs><path id="SVGID_1_" d="M0 0h111.3v66.2H0z"/></defs><clipPath id="SVGID_2_"><use xlink:href="#SVGID_1_" overflow="visible"/></clipPath><path class="st0" d="M58.6 6.3c0 2.9-2.4 5.3-5.3 5.3S48 9.3 48 6.3C48 3.4 50.4 1 53.3 1s5.3 2.4 5.3 5.3"/><circle class="st1" cx="53.3" cy="6.3" r="5.3"/><path class="st0" d="M59.4 32c0 9.9-8.1 18-18 18s-18-8.1-18-18 8.1-18 18-18 18 8.1 18 18"/><circle class="st2" cx="41.4" cy="32" r="18"/><path class="st0" d="M79.2 36.3c0 8-6.5 14.4-14.4 14.4s-14.4-6.5-14.4-14.4 6.5-14.4 14.4-14.4 14.4 6.5 14.4 14.4"/><circle class="st1" cx="64.7" cy="36.3" r="14.4"/><path class="st0" d="M37.8 54.9c0 5.7-4.6 10.3-10.3 10.3-5.7 0-10.3-4.6-10.3-10.3s4.6-10.3 10.3-10.3c5.7.1 10.3 4.7 10.3 10.3"/><circle class="st1" cx="27.5" cy="54.9" r="10.3"/><text transform="translate(58.265 40.887)" class="st3 st4 st5">ID</text><text transform="translate(23.658 58.454)" class="st3 st4 st6">IP</text><defs><path id="SVGID_3_" d="M0 0h111.3v66.2H0z"/></defs><clipPath id="SVGID_4_"><use xlink:href="#SVGID_3_" overflow="visible"/></clipPath><circle class="st7" cx="8.2" cy="12.8" r="7.2"/><path class="st8" d="M14.1 17.1l10.8 7.1"/><path class="st9" d="M14.1 17.1l10.8 7.1"/><path class="st8" d="M33.4 45.9l5-8.2"/><path class="st10" d="M33.4 45.9l5-8.2"/><path class="st8" d="M110.3 10.4c0 4.4-3.6 8-8 8s-8-3.6-8-8 3.6-8 8-8c4.4-.1 8 3.5 8 8"/><circle class="st11" cx="102.2" cy="10.4" r="8"/></svg>