<svg id="Layer_1" xmlns="http://www.w3.org/2000/svg" viewBox="138.5 259.2 90.7 56.1"><style>.st0,.st1,.st2{fill:none}.st0,.st1,.st2,.st3{stroke-width:2;stroke-miterlimit:10}.st0{stroke-linecap:round;stroke-linejoin:round;stroke:#24498e}.st1{stroke:#08baff}.st2,.st3{stroke:#24498e}.st3{fill:#fff;stroke-linecap:round}</style><path class="st0" d="M151.7 275.3h37.9m-37.9 14.4h8.4m7.6 0h8.3"/><path class="st1" d="M178.7 305.6h31c2.2 0 4-1.8 4-4v-37.1c0-2.2-1.8-4-4-4h-3.9"/><path class="st2" d="M143.8 260.4c-2.2 0-4 1.8-4 4v37.1c0 2.2 1.8 4 4 4h34.9l27.1-45.2h-62z"/><path class="st1" d="M209.9 260.5l-27.2 44.9m30.3-43l-26 43m26.6-36.9l-22.3 36.9m22.3-29.8l-18 29.8"/><circle class="st3" cx="212.2" cy="298.3" r="15.8"/><path class="st1" d="M208.9 291.1v14.7m6.3-14.7v14.7"/></svg>