<svg id="Layer_1" xmlns="http://www.w3.org/2000/svg" viewBox="273 363.3 64.6 64.5"><style>.st0,.st1,.st2{fill:none;stroke:#f0489f;stroke-width:2;stroke-linecap:round;stroke-miterlimit:10}.st1,.st2{stroke:#0c57c4}.st2{stroke-linejoin:round}</style><path class="st0" d="M299 424.2l-22.4-22.4c-3.4-3.4-3.4-9 0-12.4L299 367c3.4-3.4 9-3.4 12.4 0l22.4 22.4c3.4 3.4 3.4 9 0 12.4l-22.4 22.4c-3.4 3.5-9 3.5-12.4 0z"/><path class="st1" d="M310.5 382.8c5.9 2.5 9.4 8.8 8.1 15.3-1.3 6.5-6.9 10.9-13.2 11m-5.6-1c-5.9-2.5-9.4-8.8-8.1-15.3 1.3-6.3 6.7-10.8 12.9-11"/><path class="st2" d="M303.4 379.5l2.2 2.3-2.2 2.2m3.8 27.4l-2.3-2.3 2.3-2.2"/></svg>