<svg id="Слой_1" xmlns="http://www.w3.org/2000/svg" xmlns:xlink="http://www.w3.org/1999/xlink" viewBox="0 0 51 51"><style>.st0{clip-path:url(#SVGID_2_);fill:#08baff}.st1{fill:#e44c70}.st1,.st2,.st3,.st4{clip-path:url(#SVGID_2_)}.st2{stroke:#24498e;stroke-width:2;stroke-miterlimit:10;fill:none}.st3{fill:#fff}.st4{fill:none;stroke:#24498e;stroke-width:2;stroke-linecap:round;stroke-linejoin:round;stroke-miterlimit:10}</style><defs><path id="SVGID_1_" d="M0 0h51v51H0z"/></defs><clipPath id="SVGID_2_"><use xlink:href="#SVGID_1_" overflow="visible"/></clipPath><path class="st0" d="M4 24C4 12.1 13.6 2.5 25.5 2.5S47 12.1 47 24"/><path class="st1" d="M25.5 2.5c-1.7 0-3.4.2-5 .6C38.3 3.8 42 13.9 42 24h5c0-11.9-9.6-21.5-21.5-21.5"/><circle class="st2" cx="25.5" cy="25.5" r="24.5"/><path class="st3" d="M20.7 24.7l-8.3-11.1.9-.9 9.9 7.4"/><path class="st4" d="M20.7 24.7l-8.3-11.1.9-.9 9.9 7.4"/><path class="st3" d="M28.2 22.6c1.6 1.6 1.6 4.3 0 5.9-1.6 1.6-4.3 1.6-5.9 0-1.6-1.6-1.6-4.3 0-5.9 1.6-1.6 4.2-1.6 5.9 0"/><circle class="st2" cx="25.2" cy="25.6" r="4.2"/><path class="st4" d="M23.2 20.1l1.2.9"/></svg>