<svg id="Слой_1" xmlns="http://www.w3.org/2000/svg" xmlns:xlink="http://www.w3.org/1999/xlink" viewBox="0 0 51.7 31.4"><style>.st0{clip-path:url(#SVGID_2_);fill:none;stroke:#24498e;stroke-width:2;stroke-linecap:round;stroke-linejoin:round;stroke-miterlimit:10}.st1{fill:#08baff}.st1,.st2,.st3{clip-path:url(#SVGID_2_)}.st2{stroke:#fff;stroke-linecap:round;stroke-linejoin:round;stroke-miterlimit:10;fill:none}.st3{fill:#e44c70}</style><defs><path id="SVGID_1_" d="M0 0h51.7v31.4H0z"/></defs><clipPath id="SVGID_2_"><use xlink:href="#SVGID_1_" overflow="visible"/></clipPath><path class="st0" d="M1 24.9h49.7"/><path class="st1" d="M37.7 24.7c0 3.4-2.8 6.2-6.2 6.2-3.4 0-6.2-2.8-6.2-6.2 0-3.4 2.8-6.2 6.2-6.2 3.4 0 6.2 2.8 6.2 6.2"/><circle class="st2" cx="31.5" cy="24.7" r="6.2"/><path class="st0" d="M1 6.9h49.7"/><path class="st3" d="M17.7 6.7c0 3.4-2.8 6.2-6.2 6.2s-6.2-2.8-6.2-6.2C5.3 3.3 8.1.5 11.5.5s6.2 2.8 6.2 6.2"/><circle class="st2" cx="11.5" cy="6.7" r="6.2"/></svg>