<svg id="Layer_1" xmlns="http://www.w3.org/2000/svg" viewBox="127 -5.2 370.1 78.2"><style>.st0{fill:#081342}.st1{fill:#4692c2}.st2{fill:url(#SVGID_1_)}.st3{fill:url(#SVGID_2_)}.st4{fill:#fff}</style><path class="st0" d="M250.6-3.8c-5 0-9.4.4-14.6 1.4l-1.4.2v51h8.4V30.4h7.6c12.4 0 19.5-6.2 19.5-17.1S263-3.8 250.6-3.8zm-7.6 8c2.4-.3 4.4-.4 7.3-.4 7.3 0 11.2 3.3 11.2 9.5s-3.9 9.5-11.2 9.5H243V4.2zm36.3-9.4h8.2v54h-8.2zm34 13c-4.3 0-11.5 1.3-11.8 1.4l-1.4.3v7.8l2-.4c.1 0 7.3-1.3 11.2-1.3 6.8 0 7.8 1.9 7.8 6.4v2.3H312c-11.5 0-15.6 6.6-15.6 12.8 0 5.7 2.7 12.5 15.6 12.5 3.1 0 9.3-.3 16.1-2.1l1.2-.3V21.9c.1-12.5-8.5-14.1-16-14.1zm-1.2 34.3c-4.7 0-7.3-1.8-7.3-5 0-3.5 2.8-5.4 7.8-5.4h8.6v9.7c-2.5.3-6.5.7-9.1.7zm41.3-.5c-1.9 0-3.2-.3-3.2-4.9V16h10V8.7h-10V-1L342 2.3v6.4h-5.7V16h5.7v20.7c0 8.6 3.4 12.8 10.3 12.8 2.1 0 4.3-.3 6.9-1l1.2-.3v-7.7l-2 .4c-1.7.3-3.8.7-5 .7z"/><path class="st1" d="M399.6 21.6c3.5-2.4 5.3-6.1 5.3-10.6 0-6.7-3.2-14.7-18.5-14.7-5.2 0-9.9.5-14.4 1.6l-1.3.3v49.1l1.3.3c5 1.1 10 1.7 15.3 1.7 16.1 0 19.5-8.5 19.5-15.6 0-5.1-2.8-9.7-7.2-12.1zm-11.9 20.1c-3.7 0-6.6-.4-8.5-.7V26.1h7.7c10.1 0 11.4 4 11.4 7.5-.1 5.3-3.8 8.1-10.6 8.1zm-.9-23.1h-7.7V4.4c2.3-.4 4.9-.7 7.7-.7 6.2 0 9.6 2.6 9.6 7.4s-3.4 7.5-9.6 7.5zm48-10.8c-11.4 0-20.1 8.9-20.1 20.8 0 12 8.6 21 20.1 21 11.4 0 20-9 20-21 0-11.9-8.6-20.8-20-20.8zm0 34.3c-7.5 0-11.6-7-11.6-13.6s4-13.4 11.6-13.4 11.5 6.7 11.5 13.4c0 6.8-4 13.6-11.5 13.6zm47.6-14.4l13.3-19h-9.6L477.6 21l-8.4-12.3h-9.7l13.3 19-14.7 21.1h9.6l9.9-14.4 9.8 14.4h9.7z"/><linearGradient id="SVGID_1_" gradientUnits="userSpaceOnUse" x1="159.742" y1="-7.21" x2="159.742" y2="75.062" gradientTransform="matrix(1 0 0 -1 0 67.6)"><stop offset="0" stop-color="#4692c2"/><stop offset=".454" stop-color="#094288"/><stop offset=".521" stop-color="#094288"/><stop offset=".528" stop-color="#3b639d"/><stop offset=".693" stop-color="#4692c2"/><stop offset="1" stop-color="#80cfe3"/></linearGradient><path class="st2" d="M192.4-4.3l-36-.1s-2.3-.1-4.1.8c-1.5.8-2.9 2.6-2.9 2.6l-20.7 30s-1.5 2-1.6 5c-.2 2.7 1.5 5.5 1.5 5.5L147 69.1s1.2 1.6 2.7 2.6c1.6 1.1 4.6 1.2 4.6 1.2l36.5.1-25.7-38.9 27.3-38.4z"/><radialGradient id="SVGID_2_" cx="166.822" cy="35.325" r="42.541" gradientTransform="matrix(1 0 0 -1 0 67.6)" gradientUnits="userSpaceOnUse"><stop offset=".086" stop-color="#fff"/><stop offset=".15" stop-color="#fbfdfe"/><stop offset=".215" stop-color="#eff9fb"/><stop offset=".281" stop-color="#daf1f7"/><stop offset=".346" stop-color="#bee7f0"/><stop offset=".38" stop-color="#ace0ec"/><stop offset=".429" stop-color="#97cfe3"/><stop offset=".529" stop-color="#61a6cd"/><stop offset=".577" stop-color="#4692c2"/><stop offset=".736" stop-color="#094288"/><stop offset="1" stop-color="#051e42"/></radialGradient><path class="st3" d="M192.2-4.4C189.5-4.4 188-2 188-2l-17.3 24.1-4.6 6.4s-1.7 2.5-1.7 5.6c0 3.6 1.4 5.6 1.4 5.6l4.9 7.4 15.9 23.7s1.5 2.2 4.2 2.2c2.6 0 3.9-1.8 3.9-1.8L213.5 40s1.7-2.8 2-5.9c.3-3.1-1.1-5.9-1.1-5.9L196.6-2s-1.4-2.4-4.4-2.4z"/><path class="st4" d="M187.6 71.4l-19.4-31.7s-1.3-2-1.3-5.5c0-3.1 1.6-5.6 1.6-5.6l20.4-31.2s1-2.1 4.4-1.7c-.4-.1-.8-.1-1.4-.1-2.7 0-4.2 2.4-4.2 2.4l-21.9 30.5s-1.7 2.5-1.7 5.6c0 3.6 1.4 5.6 1.4 5.6l20.9 31.1s1.5 2.2 4.2 2.2c.5 0 1.1-.1 1.5-.2-1.9.4-3.4-.5-4-1-.3-.1-.5-.4-.5-.4z"/><path class="st4" d="M188.3 71.4l-19.4-31.7s-1.3-2-1.3-5.5c0-3.1 1.6-5.6 1.6-5.6l20.4-31.2s1-2.1 4.4-1.7c-.4-.1-.8-.1-1.4-.1-3.3 0-4.2 2.4-4.2 2.4l-21.9 30.5s-1.7 2.5-1.7 5.6c0 3.6 1.4 5.6 1.4 5.6l20.9 31.1s1.5 2.2 4.2 2.2c.5 0 1.1-.1 1.5-.2-1.9.4-3.4-.5-4-1-.3-.1-.5-.4-.5-.4z"/><path class="st0" d="M241.6 62.2c0 .7-.1 1.3-.2 1.8-.2.5-.4 1-.7 1.4-.3.4-.7.7-1.2.9-.5.2-1 .3-1.7.3-.6 0-1.2-.1-1.6-.3-.5-.2-.8-.5-1.1-.8-.3-.4-.5-.8-.7-1.3-.1-.5-.2-1.1-.2-1.8s.1-1.2.2-1.8c.2-.5.4-1 .7-1.4.3-.4.7-.7 1.2-.9s1-.3 1.7-.3c.6 0 1.1.1 1.6.3s.8.5 1.1.8c.3.4.5.8.7 1.3.1.5.2 1.1.2 1.8zm-1.2 0c0-.5 0-.9-.1-1.3s-.2-.8-.4-1c-.2-.3-.5-.5-.8-.7-.3-.2-.7-.2-1.2-.2s-.9.1-1.2.3c-.3.2-.6.4-.8.7-.2.3-.3.6-.4 1s-.1.8-.1 1.3 0 .9.1 1.3.2.8.4 1.1c.2.3.4.5.8.7.3.2.7.2 1.2.2s.9-.1 1.2-.3c.3-.2.6-.4.8-.7.2-.3.3-.7.4-1.1s.1-.8.1-1.3zm7.8 4c0 .1 0 .1 0 0 0 .1-.1.1 0 0-.1.1-.2.1-.3.1h-.8s-.1 0-.1-.1v-3.5c0-.3 0-.6-.1-.8-.1-.2-.1-.4-.2-.5-.1-.1-.2-.3-.4-.3-.2-.1-.3-.1-.5-.1-.3 0-.5.1-.8.3-.3.2-.5.5-.8.8v4.1l-.1.1h-1s-.1 0-.1-.1v-5.9l.1-.1h.6s.1 0 .1.1v.9c.3-.4.6-.6 1-.8.3-.2.6-.3 1-.3s.7.1 1 .2.5.3.6.5c.2.2.3.5.3.8.1.3.1.6.1 1.1v3.5h.4zm2.9 0c0 .1 0 .1 0 0 0 .1-.1.1-.1.1h-1s-.1 0-.1-.1v-8.7l.1-.1h1s.1 0 .1.1v8.7zm3 0c0 .1 0 .1 0 0 0 .1-.1.1-.1.1h-1s-.1 0-.1-.1v-5.9l.1-.1h1s.1 0 .1.1v5.9zm6.9 0c0 .1 0 .1 0 0 0 .1-.1.1-.1.1h-1s-.1 0-.1-.1v-3.5c0-.3 0-.6-.1-.8-.1-.2-.1-.4-.2-.5-.1-.1-.2-.3-.4-.3-.2-.1-.3-.1-.5-.1-.3 0-.5.1-.8.3-.3.2-.5.5-.8.8v4.1l-.1.1h-1s-.1 0-.1-.1v-5.9l.1-.1h.6s.1 0 .1.1v.9c.3-.4.6-.6 1-.8.3-.2.6-.3 1-.3s.7.1 1 .2c.3.1.5.3.6.5.2.2.3.5.3.8.1.3.1.6.1 1.1v3.5h.4zm6.9-3.1c0 .2 0 .3-.1.4s-.2.1-.3.1h-3.8c0 .3 0 .6.1.9s.2.5.3.7c.2.2.3.3.6.4.2.1.5.1.9.1.3 0 .5 0 .7-.1.2 0 .4-.1.6-.1.2-.1.3-.1.4-.2.1 0 .2-.1.2-.1h.1l.1.1v.6l-.1.1s-.1.1-.2.1c-.1.1-.3.1-.4.2-.2.1-.4.1-.6.1-.2 0-.5.1-.8.1-.5 0-.9-.1-1.2-.2-.4-.1-.7-.3-.9-.6-.2-.3-.4-.6-.5-1s-.2-.8-.2-1.4c0-.5.1-.9.2-1.3s.3-.7.6-1c.2-.3.5-.5.9-.6.3-.1.7-.2 1.1-.2.5 0 .8.1 1.2.2.3.1.6.3.8.6.2.2.4.5.5.9.1.3.1.7.1 1.1v.1h-.3zm-1.1-.3c0-.6-.1-1-.4-1.3-.3-.3-.6-.5-1.2-.5-.3 0-.5 0-.7.1-.2.1-.4.2-.5.4l-.3.6c-.1.2-.1.4-.1.7h3.2zm10.9.5c0 .5-.1 1-.2 1.4-.1.4-.3.7-.5 1s-.5.5-.8.6c-.3.2-.7.2-1.1.2-.2 0-.3 0-.5-.1-.1 0-.3-.1-.4-.2-.1-.1-.3-.2-.4-.3-.1-.1-.3-.2-.4-.4v3l-.1.1h-1s-.1 0-.1-.1v-8.2l.1-.1h.6s.1 0 .1.1v.9l.5-.5c.2-.1.3-.2.5-.3.2-.1.3-.2.5-.2s.4-.1.5-.1c.4 0 .8.1 1.1.2.3.2.5.4.7.7.2.3.3.6.4 1 .5.5.5.9.5 1.3zm-1.1.1c0-.3 0-.6-.1-.9 0-.3-.1-.5-.2-.7-.1-.2-.3-.4-.4-.5-.2-.1-.4-.2-.7-.2-.1 0-.3 0-.4.1-.1 0-.3.1-.4.2-.1.1-.3.2-.4.3l-.5.5v2.3c.3.4.6.6.8.8.3.2.5.3.8.3s.5-.1.7-.2c.2-.1.3-.3.5-.5.1-.2.2-.5.3-.7v-.8zm7 2.8c0 .1 0 .1-.1.1 0 0-.1 0-.1.1h-.6c-.1 0-.1 0-.1-.1v-.7c-.3.3-.5.5-.8.6-.3.1-.6.2-1 .2-.3 0-.6 0-.8-.1s-.5-.2-.6-.3-.3-.3-.4-.6c-.1-.2-.1-.5-.1-.7 0-.3.1-.6.2-.8.1-.2.3-.4.6-.6.2-.2.6-.3.9-.4.4-.1.8-.1 1.2-.1h.8v-.4c0-.2 0-.4-.1-.6 0-.2-.1-.3-.2-.4-.1-.1-.2-.2-.4-.3-.2-.1-.4-.1-.6-.1-.3 0-.5 0-.7.1-.2.1-.4.1-.5.2-.2.1-.3.1-.4.2-.1.1-.2.1-.2.1h-.1l-.1-.1v-.6c0-.1.1-.1.1-.2.1-.1.2-.1.3-.2.1-.1.3-.1.5-.2s.4-.1.6-.2c.2 0 .4-.1.7-.1.4 0 .8 0 1.1.1s.5.2.7.4c.2.2.3.4.4.7.1.3.1.6.1.9v4.1h-.3zm-1-2.6h-.9c-.3 0-.5 0-.8.1-.2 0-.4.1-.5.2l-.3.3c-.1.1-.1.3-.1.5 0 .3.1.5.3.7.2.2.5.3.8.3s.5-.1.8-.2c.2-.1.5-.4.7-.6v-1.3zm5.3 2.8l-.8 2.1c0 .1-.1.1-.2.2-.1 0-.3.1-.5.1h-.3c-.1 0-.1 0-.2-.1l-.1-.1v-.2l.8-2s-.1 0-.1-.1l-.1-.1-2.1-5.5c0-.1-.1-.2-.1-.2 0-.1 0-.1.1-.1 0 0 .1-.1.2-.1h.8s.1 0 .1.1c0 0 0 .1.1.1l1.6 4.6 1.6-4.6c0-.1.1-.1.1-.2 0 0 .1 0 .2-.1h.6c.1 0 .1 0 .2.1l.1.1v.2l-2 5.8zm11.9-.2c0 .1 0 .1 0 0 0 .1-.1.1 0 0-.1.1-.2.1-.3.1h-.8s-.1 0-.1-.1v-3.6c0-.2 0-.5-.1-.7 0-.2-.1-.4-.2-.5-.1-.1-.2-.3-.4-.3-.1-.1-.3-.1-.5-.1s-.5.1-.7.3l-.8.8v4.1l-.1.1h-1s-.1 0-.1-.1v-3.6c0-.2 0-.5-.1-.7 0-.2-.1-.4-.2-.5-.1-.1-.2-.3-.4-.3-.1-.1-.3-.1-.5-.1s-.5.1-.7.3l-.8.8v4.1l-.1.1h-1s-.1 0-.1-.1v-5.9l.1-.1h.6s.1 0 .1.1v.9c.3-.4.6-.6.9-.8.3-.2.6-.3.9-.3.2 0 .5 0 .6.1.2.1.4.1.5.2.1.1.3.2.4.4.1.1.2.3.3.5l.5-.5c.2-.1.3-.3.5-.4s.3-.2.5-.2.3-.1.5-.1c.4 0 .7.1.9.2.3.1.5.3.6.5.2.2.3.5.3.8.1.3.1.6.1.9v3.7h.7zm6.8-3.1c0 .2 0 .3-.1.4s-.2.1-.3.1h-3.8c0 .3 0 .6.1.9s.2.5.3.7c.1.2.3.3.6.4.2.1.5.1.9.1.3 0 .5 0 .7-.1.2 0 .4-.1.6-.1.2-.1.3-.1.4-.2.1 0 .2-.1.2-.1h.1l.1.1v.6l-.1.1s-.1.1-.2.1c-.1.1-.3.1-.4.2-.2.1-.4.1-.6.1-.2 0-.5.1-.8.1-.5 0-.9-.1-1.2-.2-.4-.1-.7-.3-.9-.6-.2-.3-.4-.6-.5-1s-.2-.8-.2-1.4c0-.5.1-.9.2-1.3s.3-.7.6-1c.2-.3.5-.5.9-.6.3-.1.7-.2 1.1-.2.5 0 .8.1 1.2.2.3.1.6.3.8.6.2.2.4.5.4.9.1.3.1.7.1 1.1v.1h-.2zm-1.1-.3c0-.6-.1-1-.4-1.3-.3-.3-.6-.5-1.2-.5-.3 0-.5 0-.7.1s-.4.2-.5.4l-.3.6c-.1.2-.1.4-.1.7h3.2zm7.6 3.4c0 .1 0 .1 0 0 0 .1-.1.1-.1.1h-1s-.1 0-.1-.1v-3.5c0-.3 0-.6-.1-.8-.1-.2-.1-.4-.2-.5-.1-.1-.2-.3-.4-.3-.2-.1-.3-.1-.5-.1-.3 0-.5.1-.8.3-.3.2-.5.5-.8.8v4.1l-.1.1h-1s-.1 0-.1-.1v-5.9l.1-.1h.6s.1 0 .1.1v.9c.3-.4.6-.6 1-.8.3-.2.6-.3 1-.3s.7.1 1 .2c.3.1.5.3.6.5.2.2.3.5.3.8.1.3.1.6.1 1.1v3.5h.4zm4.8-.4v.3c0 .1 0 .1-.1.2 0 0-.1.1-.2.1s-.1.1-.2.1h-.6c-.3 0-.6 0-.8-.1-.2-.1-.4-.2-.5-.4l-.3-.6c-.1-.2-.1-.5-.1-.9v-3.4h-.8c-.1 0-.1 0-.2-.1 0-.1-.1-.2-.1-.3v-.3s0-.1.1-.1h.9v-1.5l.1-.1h1s.1 0 .1.1v1.5h1.6l.1.1v.3c0 .2 0 .3-.1.3 0 .1-.1.1-.2.1h-1.5v3.2c0 .4.1.7.2.9.1.2.3.3.6.3h.3c.1 0 .1 0 .2-.1.1 0 .1 0 .2-.1h.2v.2c.1.2.1.2.1.3zm5-1.1c0 .3-.1.6-.2.8-.1.2-.3.4-.5.6-.2.2-.4.3-.7.4s-.6.1-.9.1h-.6c-.2 0-.4-.1-.5-.1s-.3-.1-.4-.2-.2-.1-.2-.1-.1-.1-.1-.2v-.6s0-.1.1-.1h.1s.1 0 .2.1.2.1.3.2c.1.1.3.1.5.2s.4.1.6.1c.2 0 .3 0 .5-.1.1 0 .3-.1.4-.2.1-.1.2-.2.2-.3.1-.1.1-.3.1-.4 0-.2 0-.3-.1-.4l-.3-.3c-.1-.1-.3-.2-.5-.2-.2-.1-.3-.1-.5-.2s-.4-.2-.5-.2c-.2-.1-.3-.2-.5-.3-.1-.1-.2-.3-.3-.5s-.1-.4-.1-.7c0-.2 0-.4.1-.6s.2-.4.4-.5c.2-.2.4-.3.7-.4.3-.1.6-.1.9-.1h.5c.2 0 .3.1.4.1.1 0 .2.1.3.1s.2.1.2.1l.1.1v.7s0 .1-.1.1h-.1s-.1 0-.2-.1c-.1 0-.2-.1-.3-.2-.1-.1-.2-.1-.4-.2-.2 0-.3-.1-.5-.1s-.3 0-.5.1c-.1 0-.2.1-.3.2s-.2.2-.2.3c0 .1-.1.2-.1.3 0 .2 0 .3.1.4l.3.3c.1.1.3.2.5.2.2.1.4.1.5.2.2.1.4.2.5.2.2.1.3.2.5.3.1.1.2.3.3.5.3.1.3.3.3.6zm8.1 0c0 .3-.1.6-.2.8-.1.2-.3.4-.5.6-.2.2-.4.3-.7.4s-.6.1-.9.1h-.6c-.2 0-.4-.1-.5-.1s-.3-.1-.4-.2c-.1-.1-.2-.1-.2-.1s-.1-.1-.1-.2v-.6s0-.1.1-.1h.1s.1 0 .2.1.2.1.3.2c.1.1.3.1.5.2s.4.1.6.1.3 0 .5-.1c.1 0 .3-.1.4-.2.1-.1.2-.2.2-.3.1-.1.1-.3.1-.4 0-.2 0-.3-.1-.4l-.3-.3c-.1-.1-.3-.2-.5-.2-.2-.1-.3-.1-.5-.2s-.4-.2-.5-.2c-.2-.1-.3-.2-.5-.3-.1-.1-.2-.3-.3-.5s-.1-.4-.1-.7c0-.2 0-.4.1-.6s.2-.4.4-.5.4-.3.7-.4c.3-.1.6-.1.9-.1h.5c.2 0 .3.1.4.1.1 0 .2.1.3.1s.2.1.2.1l.1.1v.7s0 .1-.1.1h-.1s-.1 0-.2-.1c-.1 0-.2-.1-.3-.2-.1-.1-.3-.1-.4-.2-.2 0-.3-.1-.5-.1s-.3 0-.5.1c-.1 0-.2.1-.3.2s-.2.2-.2.3c0 .1-.1.2-.1.3 0 .2 0 .3.1.4l.3.3c.1.1.3.2.5.2.2.1.4.1.5.2.2.1.4.2.5.2.2.1.3.2.5.3.1.1.2.3.3.5.3.1.3.3.3.6zm3.9 1.7l-.8 2.1c0 .1-.1.1-.2.2-.1 0-.3.1-.5.1h-.3c-.1 0-.1 0-.2-.1l-.1-.1v-.2l.8-2s-.1 0-.1-.1l-.1-.1-2.1-5.5c0-.1-.1-.2-.1-.2 0-.1 0-.1.1-.1 0 0 .1-.1.2-.1h.8s.1 0 .1.1c0 0 0 .1.1.1l1.6 4.6 1.6-4.6c0-.1.1-.1.1-.2 0 0 .1 0 .2-.1h.6c.1 0 .1 0 .2.1l.1.1v.2l-2 5.8zm6.8-1.7c0 .3-.1.6-.2.8-.1.2-.3.4-.5.6s-.4.3-.7.4c-.3.1-.6.1-.9.1h-.6c-.2 0-.4-.1-.5-.1-.1 0-.3-.1-.4-.2-.1-.1-.2-.1-.2-.1s-.1-.1-.1-.2v-.6s0-.1.1-.1h.1s.1 0 .2.1.2.1.3.2.3.1.5.2.4.1.6.1.3 0 .5-.1c.1 0 .3-.1.4-.2s.2-.2.2-.3c.1-.1.1-.3.1-.4 0-.2 0-.3-.1-.4l-.3-.3c-.1-.1-.3-.2-.5-.2-.2-.1-.3-.1-.5-.2s-.4-.2-.5-.2c-.2-.1-.3-.2-.5-.3-.1-.1-.2-.3-.3-.5-.1-.2-.1-.4-.1-.7 0-.2 0-.4.1-.6.1-.2.2-.4.4-.5.2-.1.4-.3.7-.4s.6-.1.9-.1h.5c.2 0 .3.1.4.1.1 0 .2.1.3.1.1 0 .2.1.2.1l.1.1v.7s0 .1-.1.1h-.1s-.1 0-.2-.1c-.1 0-.2-.1-.3-.2s-.3-.1-.4-.2c-.2 0-.3-.1-.5-.1s-.3 0-.5.1c-.1 0-.2.1-.3.2-.1.1-.2.2-.2.3 0 .1-.1.2-.1.3 0 .2 0 .3.1.4l.3.3c.1.1.3.2.5.2.2.1.4.1.5.2.2.1.4.2.5.2.2.1.3.2.5.3.1.1.2.3.3.5.2.1.3.3.3.6zm4.3 1.1v.3c0 .1 0 .1-.1.2 0 0-.1.1-.2.1s-.1.1-.2.1h-.6c-.3 0-.6 0-.8-.1-.2-.1-.4-.2-.5-.4l-.3-.6c-.1-.2-.1-.5-.1-.9v-3.4h-.8c-.1 0-.1 0-.2-.1 0-.1-.1-.2-.1-.3v-.3s0-.1.1-.1h.9v-1.5l.1-.1h1s.1 0 .1.1v1.5h1.6l.1.1v.3c0 .2 0 .3-.1.3 0 .1-.1.1-.2.1h-1.5v3.2c0 .4.1.7.2.9.1.2.3.3.6.3h.3c.1 0 .1 0 .2-.1.1 0 .1 0 .2-.1h.2v.2c.1.2.1.2.1.3zm6.2-2.7c0 .2 0 .3-.1.4-.1.1-.2.1-.3.1H348c0 .3 0 .6.1.9s.2.5.3.7c.1.2.3.3.6.4.2.1.5.1.9.1.3 0 .5 0 .7-.1.2 0 .4-.1.6-.1.2-.1.3-.1.4-.2.1 0 .2-.1.2-.1h.1l.1.1v.6l-.1.1s-.1.1-.2.1c-.1.1-.3.1-.4.2-.2.1-.4.1-.6.1s-.5.1-.8.1c-.5 0-.9-.1-1.2-.2-.4-.1-.7-.3-.9-.6-.2-.3-.4-.6-.5-1s-.2-.8-.2-1.4c0-.5.1-.9.2-1.3s.3-.7.6-1c.2-.3.5-.5.9-.6.3-.1.7-.2 1.1-.2.5 0 .8.1 1.2.2.3.1.6.3.8.6.2.2.4.5.5.9.1.3.1.7.1 1.1v.1h-.3zm-1.1-.3c0-.6-.1-1-.4-1.3s-.6-.5-1.2-.5c-.3 0-.5 0-.7.1s-.4.2-.5.4l-.3.6c-.1.2-.1.4-.1.7h3.2zm11.2 3.4c0 .1 0 .1 0 0 0 .1-.1.1 0 0-.1.1-.2.1-.3.1h-.8s-.1 0-.1-.1v-3.6c0-.2 0-.5-.1-.7 0-.2-.1-.4-.2-.5-.1-.1-.2-.3-.4-.3-.1-.1-.3-.1-.5-.1s-.5.1-.7.3l-.8.8v4.1l-.1.1h-1s-.1 0-.1-.1v-3.6c0-.2 0-.5-.1-.7 0-.2-.1-.4-.2-.5-.1-.1-.2-.3-.4-.3-.1-.1-.3-.1-.5-.1s-.5.1-.7.3l-.8.8v4.1l-.1.1h-1s-.1 0-.1-.1v-5.9l.1-.1h.6s.1 0 .1.1v.9c.3-.4.6-.6.9-.8.3-.2.6-.3.9-.3.2 0 .5 0 .6.1.2.1.4.1.5.2.1.1.6.7.6.8l.5-.5c.2-.1.3-.3.5-.4.2-.1.3-.2.5-.2s.3-.1.5-.1c.4 0 .7.1.9.2.3.1.5.3.6.5.2.2.3.5.3.8.1.3.1.6.1.9v3.8h.8z"/></svg>