<svg id="Слой_1" xmlns="http://www.w3.org/2000/svg" xmlns:xlink="http://www.w3.org/1999/xlink" viewBox="0 0 87.3 87.3"><style>.st0{clip-path:url(#SVGID_2_);fill:#fff}</style><defs><path id="SVGID_1_" d="M0 0h87.3v87.3H0z"/></defs><clipPath id="SVGID_2_"><use xlink:href="#SVGID_1_" overflow="visible"/></clipPath><path class="st0" d="M6.2 43.7c0 14.8 8.6 27.6 21.1 33.7l-17.9-49c-2 4.7-3.2 9.8-3.2 15.3m62.7-1.9c0-4.6-1.7-7.8-3.1-10.3-1.9-3.1-3.7-5.7-3.7-8.8 0-3.4 2.6-6.6 6.3-6.6h.5C62.2 10 53.4 6.3 43.6 6.3 30.5 6.3 19 13 12.3 23.2h2.4c3.9 0 10-.5 10-.5 2-.1 2.3 2.8.2 3.1 0 0-2 .2-4.3.4l13.6 40.6 8.2-24.6-5.8-16c-2-.1-3.9-.4-3.9-.4-2-.1-1.8-3.2.2-3.1 0 0 6.2.5 9.9.5 3.9 0 10-.5 10-.5 2-.1 2.3 2.8.2 3.1 0 0-2 .2-4.3.4l13.5 40.3L65.9 54c1.8-5.3 3-9 3-12.2"/><path class="st0" d="M44.3 46.9L33.1 79.6c3.4 1 6.9 1.5 10.6 1.5 4.4 0 8.5-.8 12.4-2.1-.1-.2-.2-.3-.3-.5L44.3 46.9zm32.2-21.2c.2 1.2.3 2.5.3 3.9 0 3.8-.7 8.1-2.8 13.4L62.5 76c11.1-6.5 18.6-18.6 18.6-32.4 0-6.4-1.6-12.6-4.6-17.9"/><path class="st0" d="M43.7 0C19.6 0 0 19.6 0 43.7s19.6 43.7 43.7 43.7 43.7-19.6 43.7-43.7C87.3 19.6 67.7 0 43.7 0m0 85.3C20.7 85.3 2 66.6 2 43.7 2 20.7 20.7 2 43.7 2s41.7 18.7 41.7 41.7c-.1 22.9-18.8 41.6-41.7 41.6"/></svg>