<svg id="Слой_1" xmlns="http://www.w3.org/2000/svg" xmlns:xlink="http://www.w3.org/1999/xlink" viewBox="0 0 43.3 38.1"><style>.st0{clip-path:url(#SVGID_2_);fill:none;stroke:#000;stroke-miterlimit:10}</style><defs><path id="SVGID_1_" d="M0 0h43.3v38.1H0z"/></defs><clipPath id="SVGID_2_"><use xlink:href="#SVGID_1_" overflow="visible"/></clipPath><path class="st0" d="M38.4 37.6H4.9c-2.4 0-4.4-2-4.4-4.4V10.9c0-2.4 2-4.4 4.4-4.4h33.4c2.4 0 4.4 2 4.4 4.4v22.2c.1 2.5-1.9 4.5-4.3 4.5zM4.9 7.3c-2 0-3.7 1.6-3.7 3.7v22.2c0 2 1.6 3.7 3.7 3.7h33.4c2 0 3.7-1.6 3.7-3.7V10.9c0-2-1.6-3.7-3.7-3.7H4.9z"/><path class="st0" d="M1.2 12.5H.5V10c0-3.3 2.2-5.5 5.9-6L29.3.5c1.1-.2 2.3-.1 3.2.3 2.1.9 3.5 2.9 3.6 5.2v.7h-.7V6c-.1-2-1.3-3.8-3.2-4.6-.8-.3-1.8-.4-2.8-.3L6.5 4.8c-3.3.5-5.3 2.4-5.3 5.2v2.5zm31.1 14.2c-2.5 0-4.5-2-4.5-4.5s2-4.5 4.5-4.5 4.5 2 4.5 4.5-2.1 4.5-4.5 4.5zm0-8.2c-2.1 0-3.7 1.7-3.7 3.7s1.7 3.7 3.7 3.7 3.7-1.7 3.7-3.7-1.7-3.7-3.7-3.7z"/></svg>