<svg id="Слой_1" xmlns="http://www.w3.org/2000/svg" xmlns:xlink="http://www.w3.org/1999/xlink" viewBox="0 0 39.8 42.5"><style>.st0{clip-path:url(#SVGID_2_);fill:none;stroke:#000;stroke-width:2;stroke-linecap:round;stroke-miterlimit:10}</style><defs><path id="SVGID_1_" d="M0 0h39.8v42.5H0z"/></defs><clipPath id="SVGID_2_"><use xlink:href="#SVGID_1_" overflow="visible"/></clipPath><ellipse class="st0" cx="17.6" cy="5.3" rx="16.5" ry="4.3"/><path class="st0" d="M33.7 4.4c.8.5.4 6.7.4 7.3 0 2.4-7.4 4.3-16.5 4.3S1.1 14.1 1.1 11.7c0-.3-.2-6.3 0-6.6m37.2 24.8c.8.5.4 6.7.4 7.3 0 2.4-7.4 4.3-16.5 4.3S5.7 39.6 5.7 37.2c0-.3-.2-6.3 0-6.6"/><path class="st0" d="M34.1 13.2c.3 1.8 0 6 0 6.5 0 2.4-7.4 4.3-16.5 4.3S1.1 22.1 1.1 19.7c0-.3-.2-6.3 0-6.6"/><path class="st0" d="M34.3 19.6c2.7.8 4.4 1.8 4.4 2.9 0 2.4-7.4 4.3-16.5 4.3-8 0-14.6-1.5-16.2-3.4"/><path class="st0" d="M38.3 21.6c.8.5.4 6.7.4 7.3 0 2.4-7.4 4.3-16.5 4.3S5.7 31.3 5.7 28.9c0-.3-.2-5.4 0-5.7"/></svg>