<svg id="Слой_1" xmlns="http://www.w3.org/2000/svg" xmlns:xlink="http://www.w3.org/1999/xlink" viewBox="0 0 29.9 49.6"><style>.st0{fill:none;stroke:#000;stroke-width:2;stroke-linecap:round;stroke-miterlimit:10}.st0,.st1{clip-path:url(#SVGID_2_)}</style><defs><path id="SVGID_1_" d="M0 0h29.9v49.6H0z"/></defs><clipPath id="SVGID_2_"><use xlink:href="#SVGID_1_" overflow="visible"/></clipPath><path class="st0" d="M27.6 48.6H2.3c-.7 0-1.3-.6-1.3-1.3v-45C1 1.6 1.6 1 2.3 1h25.3c.7 0 1.3.6 1.3 1.3v45.1c0 .7-.6 1.2-1.3 1.2zM10.9 5.4h7.9m-6.7 38h5.5"/><path class="st1" d="M6.8 5.6c0 .5-.4.9-.9.9S5 6.1 5 5.6s.4-.9.9-.9.9.4.9.9"/></svg>