<svg id="Слой_1" xmlns="http://www.w3.org/2000/svg" viewBox="0 0 116 68"><style>.st0{fill:none;stroke:#000;stroke-width:2;stroke-miterlimit:10}</style><path id="XMLID_14_" class="st0" d="M85.8 14l-5.6 2.7c-.6.3-1.3.4-1.9.3l-9.1-3.6c-2.4-1-5-1.2-7.6-.8C56.7 13.6 49 15 49 15c-.9.1-1.8.6-2.4 1.3L38.8 26c-1.3 1.6-1.1 4 .6 5.3 1.1.9 2.6 1.1 3.9.5l11.2-5.2c1.1-.5 2.4-.5 3.5.2l27.6 16c1.4.8 3.2.6 4.4-.5l10.3-9.4"/><path id="XMLID_13_" class="st0" d="M14.2 33.1l11.4 12.8"/><path id="XMLID_12_" class="st0" d="M44.8 17.9l-6-.9c-1.8-.3-3.5-1-5.1-2l-5.3-3.9"/><path id="XMLID_11_" class="st0" d="M53.4 60.9l9.3 4c1.7.7 3.6.3 4.9-1l1.2-1.3"/><path id="XMLID_10_" class="st0" d="M57.9 56.4l11.8 5.7c1.9.9 4.2.4 5.6-1.2l2.9-4.2"/><path id="XMLID_9_" class="st0" d="M61.4 48.5l14.7 7.6c1.9 1 4.2.6 5.7-.9l2.8-3.6"/><path id="XMLID_8_" class="st0" d="M65.1 40.2l18.5 10.7c1.4.8 3.1.5 4.1-.7l1-1.3c1.2-1.4.9-3.4-.5-4.6l-1.2-1"/><path id="XMLID_7_" class="st0" d="M36.5 44.2l-3.7-1.9c-1.7-.9-3.7-.4-4.9 1.2l-3.4 4.7c-1.3 1.8-.8 4.3 1.1 5.5l2.8 1.7"/><path id="XMLID_6_" class="st0" d="M35.3 60.1l8.9-12.2c1.1-1.5.7-3.7-.8-4.8l-1.5-1c-1.5-1-3.5-.6-4.6.8l-8.9 12.3c-1.1 1.6-.7 3.7.9 4.8l1.5.9c1.4 1 3.4.7 4.5-.8z"/><path id="XMLID_5_" class="st0" d="M43.3 65l2 1.3c1.4.9 3.2.6 4.2-.8l3.3-4.5c1.1-1.4.7-3.4-.7-4.4L49.8 55"/><path id="XMLID_4_" class="st0" d="M45.1 45.9l4.8 3.4c1.2 1 1.5 2.8.6 4.2l-6.8 10.6c-.9 1.4-2.7 1.9-4.2 1.1l-5.1-3.7"/><path id="XMLID_3_" class="st0" d="M92.8 3.5l-9 7.2 18.6 24.2 11.5-7.6"/><path id="XMLID_2_" class="st0" d="M22.2 1.2l8.4 7.2-17.7 26.5-10.8-6.2"/></svg>