<svg xmlns="http://www.w3.org/2000/svg" viewBox="0 0 441.2 114.2"><path d="M272.1 12.5c0 4.9 3.8 8.8 8.7 8.8 4.9 0 8.7-3.8 8.7-8.8 0-4.9-3.8-8.8-8.7-8.8-4.9 0-8.7 3.8-8.7 8.8m45.7 28.7l-.5.3-1.1-3.1c-.4-1.1-1.4-1.8-2.5-1.8h-5.6c-1.5 0-2.6 1.2-2.6 2.6v72.4c0 1.4 1.2 2.6 2.6 2.6h10.1c1.5 0 2.6-1.2 2.6-2.6V53l.3-.1c4.2-2.1 8.4-3.5 16.6-3.5 9.8 0 11.8 3.7 11.8 9.6v52.6c0 1.4 1.2 2.6 2.6 2.6h10.1c1.4 0 2.6-1.2 2.6-2.6V59.5c0-15.9-9.4-24.4-27.2-24.4-6.5 0-13.2 2.1-19.8 6.1m-29.5-2c0-1.5-1.2-2.6-2.7-2.6h-9.8c-1.5 0-2.7 1.2-2.7 2.6v72.3c0 1.5 1.2 2.6 2.7 2.6h9.8c1.5 0 2.7-1.2 2.7-2.6V39.2zM254.7 3.1c0-1.4-1.2-2.7-2.7-2.7h-9.8c-1.4 0-2.6 1.2-2.6 2.7v108.5c0 1.5 1.2 2.6 2.6 2.6h9.8c1.5 0 2.7-1.2 2.7-2.6V3.1zM87.8 75.4c0 9.9 0 40.2 33 40.2 9.9 0 16.4-.6 24.9-3.3 1-.3 1.5-1.4 1.5-2.4v-8.1c0-.9-.4-1.8-1.2-2.2-.7-.5-1.6-.4-2.5-.2-7.4 1.6-13.2 2-22.7 2-13.8 0-16.4-8.7-17.3-18.1l-.1-.6h44.8c1.5 0 2.6-1.2 2.6-2.7v-4.6c0-19.5-2.3-40.3-30-40.3-33 0-33 30.4-33 40.3m15.6-6.8c.8-10 3.4-19.2 17.4-19.2 12 0 14.3 6.5 14.6 19.2v.5h-32v-.5zm59.3 6.8c0 9.9 0 40.2 33 40.2 9.9 0 16.4-.6 24.9-3.3 1-.3 1.6-1.4 1.6-2.4v-8.1c0-.9-.4-1.8-1.2-2.2-.7-.5-1.6-.4-2.5-.2-7.4 1.6-13.3 2-22.8 2-13.7 0-16.4-8.7-17.3-18.1v-.6h44.8c1.4 0 2.6-1.2 2.6-2.7v-4.6c0-19.5-2.4-40.3-30.1-40.3-33 0-33 30.4-33 40.3m15.6-6.8c.7-10 3.4-19.2 17.3-19.2 12 0 14.3 6.5 14.6 19.2v.5h-32l.1-.5zm199.8 6.8c0 9.9 0 40.2 33 40.2 9.9 0 16.4-.6 24.9-3.3 1-.3 1.6-1.4 1.6-2.4v-8.1c0-.9-.4-1.8-1.2-2.2-.7-.5-1.6-.4-2.4-.2-7.4 1.6-13.3 2-22.8 2-13.7 0-16.4-8.7-17.3-18.1l-.1-.6h44.8c1.4 0 2.6-1.2 2.6-2.7v-4.6c0-19.5-2.3-40.3-30.1-40.3-33 0-33 30.4-33 40.3m15.7-6.8c.8-10 3.4-19.2 17.4-19.2 12 0 14.3 6.5 14.6 19.2v.5h-32v-.5zM2.8 0C1.3 0 0 1.3 0 2.8v108.6c0 1.6 1.3 2.8 2.8 2.8H38c25.2 0 39.1-11.9 39.1-33.3 0-11.7-5.6-21.7-15.1-26.7 0 0-.2-.1-.4-.3.2-.1.4-.3.4-.3 7.3-5.4 11.5-13.4 11.5-22.1C73.6 19.7 68.8 0 37 0H2.8zm35 15.2c16.4 0 18.7 7.8 18.7 16.2 0 10.8-5.7 16-17.5 16H16V15.2h21.8zm1.1 47.5c15.6 0 21.1 4.7 21.1 18.1 0 9-2.5 18.1-21.4 18.1H15.9V62.7h23z"/></svg>