<svg id="Layer_1" xmlns="http://www.w3.org/2000/svg" viewBox="0 0 109.5 106.8"><style>.st0,.st1{fill-rule:evenodd;clip-rule:evenodd;fill:#33a02c}.st1{fill:#0f0063}</style><path class="st0" d="M54.9 0C25.4 0 1.5 23.9 1.5 53.4c0 26.2 18.9 48 43.9 52.5V59c0-2.2 1.8-4 4-4h7.1c.2 0 .4-.2.4-.4V.1c-.7-.1-1.4-.1-2-.1zM44.6 45.8c-3.5 0-6.3-2.8-6.3-6.3s2.8-6.3 6.3-6.3 6.3 2.8 6.3 6.3-2.8 6.3-6.3 6.3z"/><path class="st1" d="M63.2.6v56.5c0 2.2-1.8 4-4 4h-7.1c-.2 0-.4.2-.4.4v45.2c1.1.1 2.1.1 3.2.1 29.5 0 53.4-23.9 53.4-53.4 0-26.7-19.6-48.8-45.1-52.8zm-.3 80.2c-3.1 0-5.6-2.5-5.6-5.6 0-3.1 2.5-5.6 5.6-5.6 3.1 0 5.6 2.5 5.6 5.6 0 3.1-2.5 5.6-5.6 5.6zm14.8 0c-3.1 0-5.6-2.5-5.6-5.6 0-3.1 2.5-5.6 5.6-5.6 3.1 0 5.6 2.5 5.6 5.6.1 3.1-2.5 5.6-5.6 5.6zm14.9 0c-3.1 0-5.6-2.5-5.6-5.6 0-3.1 2.5-5.6 5.6-5.6s5.6 2.5 5.6 5.6c0 3.1-2.5 5.6-5.6 5.6z"/></svg>