<svg id="_x2014_ÎÓÈ_1" xmlns="http://www.w3.org/2000/svg" viewBox="0 0 52.9 51.7"><style>.st0{fill-rule:evenodd;clip-rule:evenodd;fill:#0761af}</style><path class="st0" d="M26.9 0c4.1 0 7.9.9 11.3 2.6.5.3 1.1.5 1.6.8l-2.4 2.1-3.6-3.7-6 5.4-3.6-3.9L13 13.5l7.2 7.9-2.8 2.5 7.1 8-2.8 2.5 10.1 11.3 6-5.5 5.2 5.9c-1 .8-2.2 1.6-3.4 2.3-3.8 2.1-8.1 3.4-12.7 3.4C12.6 51.7 1 40.1 1 25.9S12.6 0 26.9 0z"/><path class="st0" d="M22.1 24.2l6.2-5.5 5.5 6.1-6.1 5.6-5.6-6.2zm4.4 10.6l6.2-5.5 5.5 6.2L32 41l-5.5-6.2zm-8.8-21.1l6.2-5.5 5.5 6.1-6.1 5.6-5.6-6.2zm11.3-3l4.6-4.1 4.2 4.6-4.6 4.2-4.2-4.7zm8.2 19.1l4.6-4.2 4.2 4.6-4.6 4.2-4.2-4.6zm4.1 9.3l4.6-4.2 4.1 4.6-4.6 4.2-4.1-4.6zm1.8-21.4l3.1-2.7 2.8 3-3.1 2.8-2.8-3.1zm-3.9-9.1l3.1-2.8L45 8.9l-3 2.8-2.8-3.1zm7.9 18.3l3-2.8 2.8 3.1-3.1 2.7-2.7-3zM33.3 20l4.6-4.1 4.1 4.6-4.6 4.1-4.1-4.6z"/></svg>