<svg id="Layer_1" xmlns="http://www.w3.org/2000/svg" viewBox="419 -184 729.5 438.2"><style>.st0{fill:#fe000c}.st1{fill:#186fa8}.st2{fill:#fff}.st3{fill:none;stroke:#fff;stroke-width:.215}</style><path class="st0" d="M929.1 254.2l11.3-.3 11.1-.8 11-1.4 10.8-2 10.6-2.4 10.5-3 10.1-3.4 10-4 9.7-4.4 9.5-4.8 9.2-5.2 8.8-5.8 8.7-6.1 8.3-6.5 8-6.9 7.6-7.3 7.2-7.6 6.9-8 6.5-8.3 6.2-8.6 5.7-8.9 5.2-9.2 4.9-9.4 4.4-9.8 3.9-10 3.4-10.1 3-10.5L1144 79l2-10.9 1.4-11 .8-11.1.3-11.3-.3-11.3-.8-11-1.4-10.9-2-10.8-2.4-10.5-3-10.4-3.4-10.1-3.9-10-4.4-9.6-4.9-9.5-5.2-9.1-5.7-8.9-6.2-8.6-6.5-8.3-6.9-7.9-7.2-7.6-7.6-7.2-8-6.9-8.3-6.5-8.7-6.1-8.8-5.7-9.2-5.3-9.5-4.9-9.7-4.4-10-3.9-10.1-3.4-10.5-3-10.6-2.4-10.8-2-11-1.3-11.1-.9-11.3-.3-11.4.3-11.1.9-11 1.3-10.8 2-10.6 2.4-10.4 3-10.2 3.4-9.9 3.9-9.8 4.4-9.4 4.9-9.1 5.3-9 5.7-8.5 6.1-8.3 6.5-7.9 6.9-7.6 7.2-7.3 7.6-6.9 7.9-6.5 8.3-6.1 8.6-5.7 8.9-5.2 9.1-4.8 9.5-4.4 9.6-3.9 10-3.5 10.1-2.9 10.4-2.4 10.5-2 10.8-1.3 10.9-.9 11-.3 11.3.3 11.3.9 11.1 1.3 11 2 10.9 2.4 10.5 2.9 10.5 3.5 10.1 3.9 10 4.4 9.8 4.8 9.4 5.2 9.2 5.7 8.9 6.1 8.6 6.5 8.3 6.9 8 7.3 7.6 7.6 7.3 7.9 6.9 8.3 6.5 8.5 6.1 9 5.8 9.1 5.2 9.4 4.8 9.8 4.4 9.9 4 10.2 3.4 10.4 3 10.6 2.4 10.8 2 11 1.4 11.1.8z"/><path class="st1" d="M638.5 254.2l11.3-.3 11.1-.8 11-1.4 10.8-2 10.6-2.4 10.4-3 10.2-3.4 10-4 9.7-4.4 9.4-4.8 9.1-5.2 9-5.8 8.5-6.1 8.3-6.5 7.9-6.9 7.7-7.3 7.2-7.6 6.9-8 6.5-8.3 6.1-8.6 5.7-8.9 5.2-9.2 4.9-9.4 4.3-9.8 3.9-10 3.5-10.1 2.9-10.5L853 79l2-10.9 1.3-11 .9-11.1.3-11.3-.3-11.3-.9-11L855 1.5l-2-10.8-2.4-10.5-2.9-10.4-3.5-10.1-3.9-10-4.3-9.6-4.9-9.5-5.2-9.1-5.7-8.9-6.1-8.6-6.5-8.3-6.9-7.9-7.2-7.6-7.7-7.2-7.9-6.9-8.3-6.5-8.5-6.1-9-5.7-9.1-5.3-9.4-4.9-9.7-4.4-10-3.9-10.2-3.4-10.4-3-10.6-2.4-10.8-2-11-1.3-11.1-.9-11.3-.3-11.3.3-11.2.9-10.9 1.3-10.8 2-10.7 2.4-10.4 3-10.2 3.4-10 3.9-9.7 4.4-9.5 4.9-9.2 5.3-8.8 5.7-8.7 6.1-8.2 6.5-8 6.9-7.6 7.2-7.3 7.6-6.9 7.9-6.5 8.3-6.2 8.6-5.6 8.9-5.3 9.1-4.9 9.5-4.4 9.6-3.9 10-3.4 10.1-3 10.4-2.4 10.5-2 10.8-1.3 10.9-.9 11-.3 11.3.3 11.3.9 11.1 1.3 11 2 10.9 2.4 10.5 3 10.5 3.4 10.1 3.9 10 4.4 9.8 4.9 9.4 5.3 9.2 5.6 8.9 6.2 8.6 6.5 8.3 6.9 8 7.3 7.6 7.6 7.3 8 6.9 8.2 6.5 8.7 6.1 8.8 5.8 9.2 5.2 9.5 4.8 9.7 4.4 10 4 10.2 3.4 10.4 3 10.7 2.4 10.8 2 10.9 1.4 11.2.8z"/><path class="st0" d="M756.8-100.5h111.1v-12.3H767.5zm-17.5 25.9h128.6v-12.2H747.1zm-13 26.3h141.6v-12.2H732.3zm-8.5 26h150.1v-12.2H721.5zm-5.5 25.9h155.6V-8.6H714.5zM711.1 54h156.8V41.7H710zm3.8 27.4h153V69.2H712.6zm7.4 22.3h145.6V91.4H718.5zm11.1 27h134.5v-12.2H727.5zm15.6 27.5h118.9v-12.3H740.8zm19.6 26.3h98.2v-12.2h-109zm343.8-15.3l.7-1.9 1.1-1.8 1.3-1.6 1.6-1.3 1.8-1 2-.6 2-.3 2.2.3 2 .6 1.8 1 1.6 1.3 1.3 1.6 1 1.8.7 1.9h-2.3l-.4-1.3-.8-1.5-1-1.3-1.2-1-1.5-.8-1.6-.5-1.8-.2-1.7.2-1.6.5-1.5.8-1.3 1-1 1.3-.8 1.5-.4 1.3z"/><path class="st0" d="M1119.2 169.2v-2.5h5l.8.1.8.2.5.3.5.4.3.4.2.5.1.6h-1.9v-.3l-.2-.3-.2-.3-.3-.2-.3-.2h-.4l-.4-.1h-2.6v1.4zm-6.9 1.9l.1-1.8v-.1h2.2l-.1.4-.1 1.5zm6.9 0v-1.9h1.9v1.6h3.1l.4-.1.4-.2.2-.1.2-.3.1-.4v-.5h1.9l-.1.7-.1.6-.2.4-.2.2zm12.2 0l-.1-1.5-.1-.4h2.3v.1l.2 1.8zm-19.1 0l-.1.4.2 2.1.7 2.1 1.1 1.7 1.3 1.6 1.6 1.2 1.8.9 2 .6 2 .2 2.2-.2 2-.6 1.8-.9 1.6-1.2 1.3-1.6 1-1.7.7-2.1.2-2.1v-.4h-2.3v.4l-.1 1.8-.5 1.8-.8 1.5-1 1.3-1.2 1.1-1.5.8-1.6.5-1.8.1-1.7-.1-1.6-.5-1.5-.8-1.3-1.1-1-1.3-.8-1.5-.5-1.8-.1-1.8v-.4z"/><path class="st0" d="M1119.2 171.1v4.5h1.9v-3.7h1.8l2.3 3.7h1.9l-2.7-3.7.6-.1h.7l.5-.3.4-.2.2-.2z"/><path class="st2" d="M881.6 16.2h-1.4l-1.5-.2-1.3-.2-1.3-.1-1.3-.2-1.3-.3-1.3-.2-1.5-.2-1.5-.1-1.6-.2-1.8-.1-1.9-.1h-2.2l-2.3.1-2.7.1-2.9.2-2.1.3-1.9.5-1.8.5-1.6.7-1.4.8-1.3.8-1.1 1-.9 1-.6 1.2-.5 1.2-.2 1.2v1.3l.3 1.4.5 1.4.8 1.3 1 1.4 2.1 1.9 2.4 1.5 2.9 1.3 3.1 1.1 3.3 1.1 3.3 1 3.5 1.3 3.3 1.4L870 43l3 2.1 2.6 2.7 2.1 3.1 1.7 3.9 1.1 4.6.3 5.5-.3 6.5-.8 4.8-1.3 4.3-1.7 3.9-2.1 3.5-2.4 3-2.7 2.6-2.9 2.2-3.2 2-3.3 1.6-3.5 1.3-3.5 1-3.5.8-3.6.6-3.4.4-3.3.2-3.3.1h-4.4l-4.1-.1-3.6-.1-3.4-.1-3.1-.1-2.8-.2-2.5-.2-2.4-.3-2.1-.2-2-.4-1.9-.4-1.9-.5-1.7-.5-1.7-.5-1.8-.6-1.8-.7 4.5-22.6 1 .2 1.2.4 1.6.4 1.6.4 2 .3 2.1.6 2.3.4 2.5.4 2.6.4 2.7.3 2.8.3 3 .3 2.9.2h6.1l3-.1 2.9-.5 2.4-.8 1.8-1.2 1.4-1.3 1.1-1.5.8-1.6.7-1.5.4-1.6.2-1.7-.1-1.4-.3-1.4-.6-1.1-.8-1.2-1-1-1.2-.9-1.4-.9-1.5-.8-1.7-.8-1.8-.8-1.8-.7-1.9-.7-2-.8-2-.8-2.1-.9-2-.8-2.1-1-2-1-1.9-1.2-1.9-1.2-1.7-1.4-1.7-1.6-1.5-1.6-1.3-1.9-1.3-2-1-2.2-.8-2.4-.6-2.7-.4-2.9-.1-3.1.3-3.4.2-2.1.3-2 .3-2 .4-1.8.4-1.8.5-1.8.7-1.7.6-1.7.8-1.5.8-1.5.9-1.3 1-1.4 1.1-1.3 1.2-1.2 1.2-1.2L820-1l1.4-1 1.5-.9 1.7-.9 1.7-.8 1.8-.8 2-.7 2-.6 2.1-.5 2.3-.5 2.4-.5 2.5-.3 2.5-.3 2.8-.2 2.9-.2 2.9-.1h6.9l3.5.1h3.1l2.9.2 2.5.1 2.3.2 2.1.2 1.8.1 1.6.2 1.5.3 1.3.1 1.2.2 1 .2.9.1.9.1.8.1z"/><path class="st3" d="M881.6 16.2h-1.4l-1.5-.2-1.3-.2-1.3-.1-1.3-.2-1.3-.3-1.3-.2-1.5-.2-1.5-.1-1.6-.2-1.8-.1-1.9-.1h-2.2l-2.3.1-2.7.1-2.9.2-2.1.3-1.9.5-1.8.5-1.6.7-1.4.8-1.3.8-1.1 1-.9 1-.6 1.2-.5 1.2-.2 1.2v1.3l.3 1.4.5 1.4.8 1.3 1 1.4 2.1 1.9 2.4 1.5 2.9 1.3 3.1 1.1 3.3 1.1 3.3 1 3.5 1.3 3.3 1.4L870 43l3 2.1 2.6 2.7 2.1 3.1 1.7 3.9 1.1 4.6.3 5.5-.3 6.5-.8 4.8-1.3 4.3-1.7 3.9-2.1 3.5-2.4 3-2.7 2.6-2.9 2.2-3.2 2-3.3 1.6-3.5 1.3-3.5 1-3.5.8-3.6.6-3.4.4-3.3.2-3.3.1h-4.4l-4.1-.1-3.6-.1-3.4-.1-3.1-.1-2.8-.2-2.5-.2-2.4-.3-2.1-.2-2-.4-1.9-.4-1.9-.5-1.7-.5-1.7-.5-1.8-.6-1.8-.7 4.5-22.6 1 .2 1.2.4 1.6.4 1.6.4 2 .3 2.1.6 2.3.4 2.5.4 2.6.4 2.7.3 2.8.3 3 .3 2.9.2h6.1l3-.1 2.9-.5 2.4-.8 1.8-1.2 1.4-1.3 1.1-1.5.8-1.6.7-1.5.4-1.6.2-1.7-.1-1.4-.3-1.4-.6-1.1-.8-1.2-1-1-1.2-.9-1.4-.9-1.5-.8-1.7-.8-1.8-.8-1.8-.7-1.9-.7-2-.8-2-.8-2.1-.9-2-.8-2.1-1-2-1-1.9-1.2-1.9-1.2-1.7-1.4-1.7-1.6-1.5-1.6-1.3-1.9-1.3-2-1-2.2-.8-2.4-.6-2.7-.4-2.9-.1-3.1.3-3.4.2-2.1.3-2 .3-2 .4-1.8.4-1.8.5-1.8.7-1.7.6-1.7.8-1.5.8-1.5.9-1.3 1-1.4 1.1-1.3 1.2-1.2 1.2-1.2L820-1l1.4-1 1.5-.9 1.7-.9 1.7-.8 1.8-.8 2-.7 2-.6 2.1-.5 2.3-.5 2.4-.5 2.5-.3 2.5-.3 2.8-.2 2.9-.2 2.9-.1h6.9l3.5.1h3.1l2.9.2 2.5.1 2.3.2 2.1.2 1.8.1 1.6.2 1.5.3 1.3.1 1.2.2 1 .2.9.1.9.1.8.1-5.2 23.3"/><path class="st2" d="M905.3-31.9h28.9l-4.4 25.2h17.8l-4.1 22.9-18.2-.3-9.6 57.4-.1 1.2v1.1l.1.9.3.9.5.7.5.7.6.6.7.4.9.5.9.3 1 .3 1 .1 1.1.3h1.2l1.2.1h3.5l2-.1 1.9-.3 1.6-.4 1.2-.3 1-.4.5-.3.2-.1-2.9 19.7-.7.4-.8.4-.8.3-.8.4-.8.3-.9.3-.8.3-1 .3-1 .2-1.1.3-1.2.2-1.3.2-1.4.2-1.4.2-1.7.2-1.7.3h-7.8l-4.1-.3-3.7-.5-3.2-.5-2.8-.8-2.4-.9-2-1.1-1.7-1.2-1.3-1.4-1.1-1.5-.8-1.6-.5-1.8-.3-2.1-.1-2 .1-2.3.2-2.4.4-2.6z"/><path class="st3" d="M905.3-31.9h28.9l-4.4 25.2h17.8l-4.1 22.9-18.2-.3-9.6 57.4-.1 1.2v1.1l.1.9.3.9.5.7.5.7.6.6.7.4.9.5.9.3 1 .3 1 .1 1.1.3h1.2l1.2.1h3.5l2-.1 1.9-.3 1.6-.4 1.2-.3 1-.4.5-.3.2-.1-2.9 19.7-.7.4-.8.4-.8.3-.8.4-.8.3-.9.3-.8.3-1 .3-1 .2-1.1.3-1.2.2-1.3.2-1.4.2-1.4.2-1.7.2-1.7.3h-7.8l-4.1-.3-3.7-.5-3.2-.5-2.8-.8-2.4-.9-2-1.1-1.7-1.2-1.3-1.4-1.1-1.5-.8-1.6-.5-1.8-.3-2.1-.1-2 .1-2.3.2-2.4.4-2.6 19.2-112.6"/><path class="st2" d="M729.3 55.5l-.3 1.8-.1 1.8.1 1.9.5 1.9.5 1.9.9 2 1 1.9 1.2 1.8 1.4 1.7 1.6 1.6 1.6 1.5 1.8 1.4 2 1.1 2 .9 2.2.8 2.1.5 2.6.3 2.6.4 2.7.3 2.6.1 2.8.1h2.6l2.8-.2 2.8-.2 2.8-.4 2.9-.5 2.9-.7 2.8-1 2.9-1 3-1.3 3-1.6 3-1.8-4.5 25.6-1.6.9-1.7.8-1.5.6-1.6.6-1.5.6-1.6.4-1.7.4-1.8.3-1.9.2-2 .2-2.2.3h-2.4l-2.6.2h-2.9l-3.1.1h-6l-2.6-.2-2.5-.1-2.6-.3-2.7-.4-2.6-.4-2.5-.6-2.6-.6-2.6-.8-2.5-.8-2.4-.9-2.5-1.1-2.4-1.2-2.3-1.3-2.1-1.4-2.2-1.6-2-1.7-1.9-1.9-1.9-2-1.7-2.2-1.5-2.4-1.5-2.4-1.3-2.7-1.1-2.8-1-3-.8-3.2-.7-3.3-.4-3.6-.3-3.7v-3.9l.1-4.2.4-4.3.2-1.5.2-1.8.3-1.7.4-1.9.3-1.9.5-2 .6-2.1.6-2.2.7-2.2.8-2.2.9-2.2 1.1-2.2 1.1-2.3 1.2-2.2 1.4-2.2 1.4-2.2 1.7-2.1 1.7-2.1 1.9-2 2.1-1.8 2.1-1.9 2.4-1.7 2.5-1.6 2.8-1.5 2.9-1.3 3-1.3 3.3-1 3.4-.9 3.7-.7 3.9-.5 4-.3 4.4-.2h2l2 .2 2.1.1 2.1.2 2.1.3 2.1.5 2.1.5 2.1.5 2.1.7 2.1.8 2 .9 1.9 1 1.9 1.1 1.9 1.2L787 .5l1.7 1.5 1.6 1.6 1.5 1.8 1.4 2.1 1.2 2 1.2 2.4 1 2.4.8 2.7.7 2.8.6 3 .3 3.2.2 3.3v3.6l-.3 3.9-.3 4-.7 4.2-.8 4.5-1.2 6.3h-74.8l4.5-20h44.8l.3-2.7v-2.5l-.2-2.4-.4-2.2-.6-1.9-.7-1.8-1-1.6-1-1.4-1.3-1.3-1.3-1.1-1.5-.9-1.5-.7-1.6-.6-1.8-.4-1.8-.2-1.8-.1h-2.1l-1.8.3-1.9.4-1.7.5-1.7.8-1.6 1-1.5 1-1.3 1.3-1.3 1.4-1.2 1.5-1.1 1.7-1 1.8-.8 1.8-.8 2.1-.5 2.1-.5 2.3z"/><path class="st3" d="M729.3 55.5l-.3 1.8-.1 1.8.1 1.9.5 1.9.5 1.9.9 2 1 1.9 1.2 1.8 1.4 1.7 1.6 1.6 1.6 1.5 1.8 1.4 2 1.1 2 .9 2.2.8 2.1.5 2.6.3 2.6.4 2.7.3 2.6.1 2.8.1h2.6l2.8-.2 2.8-.2 2.8-.4 2.9-.5 2.9-.7 2.8-1 2.9-1 3-1.3 3-1.6 3-1.8-4.5 25.6-1.6.9-1.7.8-1.5.6-1.6.6-1.5.6-1.6.4-1.7.4-1.8.3-1.9.2-2 .2-2.2.3h-2.4l-2.6.2h-2.9l-3.1.1h-6l-2.6-.2-2.5-.1-2.6-.3-2.7-.4-2.6-.4-2.5-.6-2.6-.6-2.6-.8-2.5-.8-2.4-.9-2.5-1.1-2.4-1.2-2.3-1.3-2.1-1.4-2.2-1.6-2-1.7-1.9-1.9-1.9-2-1.7-2.2-1.5-2.4-1.5-2.4-1.3-2.7-1.1-2.8-1-3-.8-3.2-.7-3.3-.4-3.6-.3-3.7v-3.9l.1-4.2.4-4.3.2-1.5.2-1.8.3-1.7.4-1.9.3-1.9.5-2 .6-2.1.6-2.2.7-2.2.8-2.2.9-2.2 1.1-2.2 1.1-2.3 1.2-2.2 1.4-2.2 1.4-2.2 1.7-2.1 1.7-2.1 1.9-2 2.1-1.8 2.1-1.9 2.4-1.7 2.5-1.6 2.8-1.5 2.9-1.3 3-1.3 3.3-1 3.4-.9 3.7-.7 3.9-.5 4-.3 4.4-.2h2l2 .2 2.1.1 2.1.2 2.1.3 2.1.5 2.1.5 2.1.5 2.1.7 2.1.8 2 .9 1.9 1 1.9 1.1 1.9 1.2L787 .5l1.7 1.5 1.6 1.6 1.5 1.8 1.4 2.1 1.2 2 1.2 2.4 1 2.4.8 2.7.7 2.8.6 3 .3 3.2.2 3.3v3.6l-.3 3.9-.3 4-.7 4.2-.8 4.5-1.2 6.3h-74.8l4.5-20h44.8l.3-2.7v-2.5l-.2-2.4-.4-2.2-.6-1.9-.7-1.8-1-1.6-1-1.4-1.3-1.3-1.3-1.1-1.5-.9-1.5-.7-1.6-.6-1.8-.4-1.8-.2-1.8-.1h-2.1l-1.8.3-1.9.4-1.7.5-1.7.8-1.6 1-1.5 1-1.3 1.3-1.3 1.4-1.2 1.5-1.1 1.7-1 1.8-.8 1.8-.8 2.1-.5 2.1-.5 2.3-4.1 21.5"/><path class="st2" d="M689.3 80.7l-4.1 23h-26l.3-2.2.3-2.2.3-1.9.2-1.8.3-1.5.3-1.3.2-.9.3-.5-1.3 1.6-1.8 1.6-1.9 1.5-2.2 1.4-2.4 1.4-2.6 1.3-2.7 1.1-2.9 1.1-2.9 1-3 .8-3.1.5-3 .5-3 .2-3 .1-2.8-.3-2.8-.4-3.7-.9-3.3-1.1-2.9-1.4-2.6-1.5-2.3-1.6-1.9-1.9-1.8-2-1.4-2.1-1.2-2.2-1-2.2-.8-2.3-.7-2.4-.4-2.3-.3-2.4-.2-2.3V74l.3-4 .6-3.9.9-3.6 1.4-3.5 1.7-3.2 1.8-3.1 2.3-2.8 2.4-2.6 2.6-2.4 2.8-2.1 3-1.9 3.2-1.7 3.3-1.4 3.4-1.2 3.5-.8 3.5-.7h.1l.5-.1h.8l1.1-.2 1.2-.1 1.5-.2 1.6-.2 1.7-.1 1.7-.2 1.7-.2 1.8-.1 1.8-.2 1.6-.1 1.5-.1 1.3-.1h4.9l1.3.1h1.2l1.1.1h2.3l1 .1h2.5l.6.1h.8l.2-.7.5-1.8.3-2v-1.8l-.1-1.3-.2-1.2-.4-1.1-.5-1.1-.6-1-.7-1-.7-.8-.9-.9-.9-.7-.9-.6-1.1-.6-1.1-.5-1.1-.3-1.3-.3-1.2-.2-1.2-.2h-6.1l-3.2.1-3.3.2-3.3.2-3.3.3-3.4.4-3.2.3-3.1.5-2.9.5-2.7.5-2.5.6-2.3.5-1.8.6-1.5.6-1.1.6 7.4-24.5 2.2-1 2.3-.9 2.3-.8 2.4-.6 2.5-.5 2.6-.5 2.8-.3 2.8-.3 2.8-.2 3-.1 3-.1h9.8l3.5.1 3.6.1 2.9.3 3.1.4 3.3.8 3.2.9 3.2 1.2 3.3 1.5 3 1.8 2.9 2 2.6 2.3 2.4 2.5 2 2.8 1.6 3.1 1.2 3.4.6 3.7.1 3.9-.6 4.2z"/><path class="st3" d="M689.3 80.7l-4.1 23h-26l.3-2.2.3-2.2.3-1.9.2-1.8.3-1.5.3-1.3.2-.9.3-.5-1.3 1.6-1.8 1.6-1.9 1.5-2.2 1.4-2.4 1.4-2.6 1.3-2.7 1.1-2.9 1.1-2.9 1-3 .8-3.1.5-3 .5-3 .2-3 .1-2.8-.3-2.8-.4-3.7-.9-3.3-1.1-2.9-1.4-2.6-1.5-2.3-1.6-1.9-1.9-1.8-2-1.4-2.1-1.2-2.2-1-2.2-.8-2.3-.7-2.4-.4-2.3-.3-2.4-.2-2.3V74l.3-4 .6-3.9.9-3.6 1.4-3.5 1.7-3.2 1.8-3.1 2.3-2.8 2.4-2.6 2.6-2.4 2.8-2.1 3-1.9 3.2-1.7 3.3-1.4 3.4-1.2 3.5-.8 3.5-.7h.1l.5-.1h.8l1.1-.2 1.2-.1 1.5-.2 1.6-.2 1.7-.1 1.7-.2 1.7-.2 1.8-.1 1.8-.2 1.6-.1 1.5-.1 1.3-.1h4.9l1.3.1h1.2l1.1.1h2.3l1 .1h2.5l.6.1h.8l.2-.7.5-1.8.3-2v-1.8l-.1-1.3-.2-1.2-.4-1.1-.5-1.1-.6-1-.7-1-.7-.8-.9-.9-.9-.7-.9-.6-1.1-.6-1.1-.5-1.1-.3-1.3-.3-1.2-.2-1.2-.2h-6.1l-3.2.1-3.3.2-3.3.2-3.3.3-3.4.4-3.2.3-3.1.5-2.9.5-2.7.5-2.5.6-2.3.5-1.8.6-1.5.6-1.1.6 7.4-24.5 2.2-1 2.3-.9 2.3-.8 2.4-.6 2.5-.5 2.6-.5 2.8-.3 2.8-.3 2.8-.2 3-.1 3-.1h9.8l3.5.1 3.6.1 2.9.3 3.1.4 3.3.8 3.2.9 3.2 1.2 3.3 1.5 3 1.8 2.9 2 2.6 2.3 2.4 2.5 2 2.8 1.6 3.1 1.2 3.4.6 3.7.1 3.9-.6 4.2-10.7 54.1"/><path class="st1" d="M664.5 53.6l-.1-.6-.5-.4-.7-.4-.9-.2-1.2-.1-1.3-.1h-3.1l-1.7.2-1.7.2-1.7.2-1.6.3-1.6.3-1.5.3-1.3.3-1.2.4-.6.1-.9.3-1.1.4-1.1.5-1.2.5-1.4.6-1.4.8-1.3.8-1.4 1-1.3 1.1-1.2 1.1-1.1 1.3-1 1.4-.7 1.5-.6 1.7-.4 1.7-.1 3.5.5 2.8.9 2.1 1.3 1.6 1.5 1.1 1.7.7 1.8.4h4.9l2.8-.3 2.7-.5 2.3-.7 2.2-.7 1.9-.9 1.8-1 1.5-1 1.3-1.1 1.2-1.2 1-1.2.9-1.2.7-1.2.6-1.2.4-1.1.4-1.1.3-1.6.4-1.7.3-1.7.4-1.8.3-1.7.3-1.6.3-1.5z"/><path class="st2" d="M472 103.7h-28.2l23.7-135.6h49l4.8 80.7 33.4-80.7h50.8l-23.8 135.6h-28.1L571.4 2.1h-1.1l-41.9 101.6h-31.6l-.3-4.3-.6-11.3-.9-16-1.1-18.3-1.1-18.5-.9-16.4-.7-11.8-.3-5h-1.4.3z"/><path class="st3" d="M472 103.7h-28.2l23.7-135.6h49l4.8 80.7 33.4-80.7h50.8l-23.8 135.6h-28.1L571.4 2.1h-1.1l-41.9 101.6h-31.6l-.3-4.3-.6-11.3-.9-16-1.1-18.3-1.1-18.5-.9-16.4-.7-11.8-.3-5h-1.4.3L472 103.7"/><path class="st2" d="M942.4 103.7h29.3l10-58.6.4-2.3.5-2.2.6-2.3.7-2 .8-2.1 1-2 1.2-1.8 1.4-1.8L990 27l1.8-1.5 2.3-1.3 2.4-1.1 2.9-1 3.2-.7 3.6-.4 4.1-.3h.3l.5.1.5.1h1.1l.4.1.3.1h.2l.1-.5.2-1.2.4-1.9.6-2.3.7-2.7.8-2.9.9-2.9 1.1-2.7.8-2 .9-2 1-1.9 1-1.8.8-1.5.8-1.2.5-.8.1-.3h-.1l-.4-.2h-.5l-.7-.2-.7-.1-.9-.1-.8-.1h-.7l-3.2.2-2.9.3-2.6.6-2.5.7-2.3.8-2.1 1-2 1.1-1.8 1.2-1.8 1.4-1.6 1.5-1.6 1.6-1.5 1.7-1.5 1.8-1.5 2-1.5 2-1.5 2.1L991-6.7l-29.3-.4z"/><path class="st3" d="M942.4 103.7h29.3l10-58.6.4-2.3.5-2.2.6-2.3.7-2 .8-2.1 1-2 1.2-1.8 1.4-1.8L990 27l1.8-1.5 2.3-1.3 2.4-1.1 2.9-1 3.2-.7 3.6-.4 4.1-.3h.3l.5.1.5.1h1.1l.4.1.3.1h.2l.1-.5.2-1.2.4-1.9.6-2.3.7-2.7.8-2.9.9-2.9 1.1-2.7.8-2 .9-2 1-1.9 1-1.8.8-1.5.8-1.2.5-.8.1-.3h-.1l-.4-.2h-.5l-.7-.2-.7-.1-.9-.1-.8-.1h-.7l-3.2.2-2.9.3-2.6.6-2.5.7-2.3.8-2.1 1-2 1.1-1.8 1.2-1.8 1.4-1.6 1.5-1.6 1.6-1.5 1.7-1.5 1.8-1.5 2-1.5 2-1.5 2.1L991-6.7l-29.3-.4-19.3 110.8"/><path class="st2" d="M1069.2-8.2h3.2l3.2.3 3.1.2 3 .5 2.9.5 2.8.8 2.6.8 2.7.9 2.5 1.1 2.4 1.1 2.4 1.3 2.1 1.3 2.2 1.5 2 1.6 1.9 1.7 1.8 1.8 1.7 1.8 1.6 2.1 1.4 2 1.4 2.1 1.3 2.3 1.1 2.3 1.1 2.4.8 2.5.8 2.6.7 2.6.5 2.8.5 2.8.3 2.8.1 2.9.1 3.1-.1 3-.2 3.6-.4 3.6-.5 3.4-.7 3.3-.7 3.1-.9 3.1-1.1 2.9-1 2.8-1.3 2.7-1.3 2.6-1.5 2.4-1.6 2.3-1.6 2.3-1.8 2.1-1.9 1.9-1.9 1.9-2 1.7-2.1 1.7-2.3 1.5-2.2 1.3-2.4 1.3-2.4 1.2-2.5 1.1-2.6.9-2.5.9-2.8.7-2.7.6-2.8.5-2.8.3-2.9.3-3 .2h-5.9l-2.9-.2-2.8-.3-2.8-.4-2.8-.5-2.7-.6-2.6-.7-2.5-.9-2.5-.9-2.4-1.1-2.3-1.1-2.3-1.3-2.1-1.4-2-1.5-2-1.6-1.9-1.7-1.7-1.8-1.8-2-1.5-2-1.5-2.2-1.3-2.2-1.3-2.4-1.1-2.4-1-2.5-.8-2.7-.8-2.8-.7-2.9-.5-2.9-.3-3.1-.3-3.2v-6.7l.3-3.4.3-3.4.5-3.2.7-3.1.7-3 .8-3 1-2.8 1.1-2.7 1.1-2.7 1.3-2.5 1.5-2.4 1.5-2.4 1.5-2.1 1.8-2.2 1.8-1.9 1.8-2 2.1-1.8 2.1-1.6 2.1-1.6 2.2-1.4 2.4-1.3 2.5-1.3 2.5-1.1 2.5-1 2.7-.9 2.7-.8 2.8-.6 2.9-.6 2.9-.4 3.1-.3 3.1-.2z"/><path class="st3" d="M1069.2-8.2h3.2l3.2.3 3.1.2 3 .5 2.9.5 2.8.8 2.6.8 2.7.9 2.5 1.1 2.4 1.1 2.4 1.3 2.1 1.3 2.2 1.5 2 1.6 1.9 1.7 1.8 1.8 1.7 1.8 1.6 2.1 1.4 2 1.4 2.1 1.3 2.3 1.1 2.3 1.1 2.4.8 2.5.8 2.6.7 2.6.5 2.8.5 2.8.3 2.8.1 2.9.1 3.1-.1 3-.2 3.6-.4 3.6-.5 3.4-.7 3.3-.7 3.1-.9 3.1-1.1 2.9-1 2.8-1.3 2.7-1.3 2.6-1.5 2.4-1.6 2.3-1.6 2.3-1.8 2.1-1.9 1.9-1.9 1.9-2 1.7-2.1 1.7-2.3 1.5-2.2 1.3-2.4 1.3-2.4 1.2-2.5 1.1-2.6.9-2.5.9-2.8.7-2.7.6-2.8.5-2.8.3-2.9.3-3 .2h-5.9l-2.9-.2-2.8-.3-2.8-.4-2.8-.5-2.7-.6-2.6-.7-2.5-.9-2.5-.9-2.4-1.1-2.3-1.1-2.3-1.3-2.1-1.4-2-1.5-2-1.6-1.9-1.7-1.7-1.8-1.8-2-1.5-2-1.5-2.2-1.3-2.2-1.3-2.4-1.1-2.4-1-2.5-.8-2.7-.8-2.8-.7-2.9-.5-2.9-.3-3.1-.3-3.2v-6.7l.3-3.4.3-3.4.5-3.2.7-3.1.7-3 .8-3 1-2.8 1.1-2.7 1.1-2.7 1.3-2.5 1.5-2.4 1.5-2.4 1.5-2.1 1.8-2.2 1.8-1.9 1.8-2 2.1-1.8 2.1-1.6 2.1-1.6 2.2-1.4 2.4-1.3 2.5-1.3 2.5-1.1 2.5-1 2.7-.9 2.7-.8 2.8-.6 2.9-.6 2.9-.4 3.1-.3 3.1-.2h3.1"/><path class="st2" d="M1112.2 98.1h8.5v1.1h-3.3v7h-1.9v-7h-3.3z"/><path class="st3" d="M1112.2 98.1h8.5v1.1h-3.3v7h-1.9v-7h-3.3v-1.1"/><path class="st2" d="M1121.8 98.1h2.6l3 6.3 3-6.3h2.6v8.1h-1.9V100l-3 6.2h-1.5l-2.9-6.2v6.2h-1.9z"/><path class="st3" d="M1121.8 98.1h2.6l3 6.3 3-6.3h2.6v8.1h-1.9V100l-3 6.2h-1.5l-2.9-6.2v6.2h-1.9v-8.1"/><path class="st0" d="M1046.2 44.7l-.4 4-.3 3.8v3.3l.3 3.2.4 2.9.6 2.5.8 2.3 1 2.1 1.3 1.8 1.3 1.5 1.5 1.3 1.7 1 1.8.8 2 .6 2.1.3 2.2.1 2.5-.1 2.4-.2 2.2-.5 2.2-.8 2-1 1.9-1.3 1.8-1.6 1.7-1.8 1.6-2 1.4-2.3 1.4-2.6 1.1-2.8 1.1-3.1.9-3.4.8-3.6.6-4 .4-3.1.2-2.9v-2.9l-.2-2.7-.4-2.6-.6-2.4-.8-2.2-.9-2.1-1.2-1.9-1.3-1.6-1.5-1.4-1.6-1.2-1.9-.9-2-.6-2.2-.4h-2.3l-3 .3-2.7.5-2.6.8-2.3 1.1-2.2 1.4-2 1.6-1.8 1.8-1.6 2-1.5 2.2-1.3 2.3-1.1 2.3-1 2.5-.8 2.4-.8 2.5-.5 2.4z"/></svg>