<svg id="Слой_1" xmlns="http://www.w3.org/2000/svg" viewBox="0 0 285.2 80.4"><style>.st0{display:none;fill:#7d7d7d}.st1{fill:#33992d}.st2{fill:url(#SVGID_1_)}</style><path class="st0" d="M157.8 8.5l-18 39H138V0h-25.6v80.4h21.7c5.7 0 10.9-3.3 13.3-8.5l18-39h1.8v47.5h25.6V0h-21.7c-5.8 0-10.9 3.3-13.3 8.5m-96 2.1l-10.7 37h-1.8l-10.7-37C36.8 4.3 31.1 0 24.6 0H-1v80.4h25.6V32.9h1.8L41 80.4h18.3l14.6-47.5h1.8v47.5h25.6V0H75.8c-6.5 0-12.2 4.3-14 10.6m141.9 26v43.9h25.5V54.8h27.5c11.9 0 22.1-7.6 25.8-18.3h-78.8zM256.8 0h-56.7c3.4 18.7 19.8 32.9 39.5 32.9h44c.4-1.8.5-3.6.5-5.5.1-15.1-12.2-27.4-27.3-27.4"/><path class="st1" d="M158.8 8.5l-18 39H139V0h-25.6v80.4h21.7c5.7 0 10.9-3.3 13.3-8.5l18-39h1.8v47.5h25.6V0h-21.7c-5.8 0-10.9 3.3-13.3 8.5m-96 2.1l-10.7 37h-1.8l-10.7-37C37.8 4.3 32.1 0 25.6 0H0v80.4h25.6V32.9h1.8L42 80.4h18.3l14.6-47.5h1.8v47.5h25.6V0H76.8c-6.5 0-12.2 4.3-14 10.6m141.9 26v43.9h25.5V54.8h27.5c11.9 0 22.1-7.6 25.8-18.3h-78.8z"/><linearGradient id="SVGID_1_" gradientUnits="userSpaceOnUse" x1="201.08" y1="16.452" x2="285.171" y2="16.452"><stop offset=".01" stop-color="#499bc7"/><stop offset=".237" stop-color="#4693c3"/><stop offset=".613" stop-color="#3c7fb9"/><stop offset="1" stop-color="#3165ac"/></linearGradient><path class="st2" d="M257.8 0h-56.7c3.4 18.7 19.8 32.9 39.5 32.9h44c.4-1.8.5-3.6.5-5.5.1-15.1-12.2-27.4-27.3-27.4"/></svg>