<svg id="Layer_1" xmlns="http://www.w3.org/2000/svg" viewBox="0 0 179.3 49.4"><style>.st0{fill:#1d90c0}.st0,.st1{fill-rule:evenodd;clip-rule:evenodd}</style><path class="st0" d="M3.5 49.4h9.3v-9.7H3.5v9.7zm166.5 0h9.3v-9.7H170v9.7z"/><path class="st1" d="M12.9 16.2h29.3V6.5H12.9v9.7zm9 33.2h11.4v-31H21.9v31zm22.7 0h11.5V6.5H44.6v42.9zm30 0h11.5V6.5H74.6v42.9zM58.5 16.2h11.4V6.5H58.5v9.7zm0 16.6h11.4v-9.7H58.5v9.7zm0 16.6h11.4v-9.7H58.5v9.7zm29.9 0h11.4v-9.7H88.4v9.7zm13.8 0h11.4V6.5h-11.4v42.9zm13.9-33.2h11.4V6.5h-11.4v9.7zm0 16.6h11.4v-9.7h-11.4v9.7zm0 16.6h11.4v-9.7h-11.4v9.7zM148.9 10V0c-10.1.3-15.6 8.3-15.6 19.6H144c-.4-4.3 1.3-8.4 4.9-9.6z"/><path class="st1" d="M167.2 14.3c.1-7.9-5.5-14.5-15.8-14.3v10c3 .9 4.8 2.2 4.8 5.3 0 6.4-8.5 14.4-22.9 24.9v9.2h33.9v-9.6H150c14.5-11.5 17.2-17.9 17.2-25.5z"/></svg>