<svg id="Yota_x5F_logo" xmlns="http://www.w3.org/2000/svg" viewBox="0 0 283.5 283.5"><style>.st0{fill:#48bad6}</style><path class="st0" d="M119.6 229.4c-.1-.2-.3-.3-.5-.3h-6.5c-.2 0-.4.1-.5.3l-13.4 19.3L86 229.4c-.1-.2-.3-.3-.5-.3h-6.8c-.2 0-.4.1-.5.3-.1.2-.1.4 0 .6L95 255.6v23.6c0 .2.1.3.2.4.1.1.3.2.4.2h5.9c.2 0 .3-.1.4-.2.1-.1.2-.3.2-.4v-23.7l17.4-25.6c.1-.1.2-.3.1-.5m22.7 18.9c-1.4-1.8-3.2-3.3-5.4-4.4-2.2-1.1-4.7-1.7-7.5-1.7-2.9 0-5.4.5-7.5 1.6-2.1 1.1-3.9 2.5-5.4 4.3s-2.5 3.8-3.2 6.1c-.7 2.3-1 4.6-1 7 0 2.4.4 4.7 1.1 7.1.7 2.3 1.8 4.4 3.2 6.2 1.4 1.8 3.2 3.3 5.3 4.4l.3-.5-.3.5c2.2 1.1 4.7 1.6 7.5 1.6s5.3-.5 7.5-1.7c2.2-1.1 4-2.6 5.4-4.4 1.4-1.8 2.5-3.8 3.2-6.1.7-2.3 1.1-4.6 1.1-7 0-2.4-.3-4.7-1.1-7-.8-2.2-1.8-4.2-3.2-6m-23.1 13c0-1.7.2-3.3.7-4.9.4-1.6 1.1-3 1.9-4.3.8-1.2 1.9-2.2 3.2-3 1.3-.7 2.7-1.1 4.5-1.1 1.7 0 3.2.4 4.5 1.1 1.3.8 2.4 1.7 3.2 3 .9 1.3 1.5 2.7 1.9 4.3.4 1.6.7 3.3.7 5 0 1.7-.2 3.3-.7 5-.4 1.6-1.1 3.1-1.9 4.3-.9 1.2-2 2.3-3.2 3-1.3.8-2.7 1.1-4.5 1.1-1.7 0-3.1-.4-4.4-1.1-1.3-.8-2.4-1.8-3.3-3-.9-1.3-1.5-2.7-1.9-4.3-.5-1.7-.7-3.4-.7-5.1m51.6 11.8c-.1-.2-.2-.3-.4-.3s-.4 0-.5.1c-.7.5-1.4 1-2.2 1.3-.8.4-1.6.5-2.4.5-.9 0-1.6-.2-2.2-.7-.4-.3-.8-1.3-.8-3v-22h8.8c.2 0 .3-.1.4-.2.1-.1.2-.3.2-.4v-4.7c0-.2-.1-.3-.2-.4-.1-.1-.3-.2-.4-.2h-8.7V234c0-.2-.1-.3-.2-.4-.1-.1-.3-.2-.4-.2h-5.7c-.2 0-.3.1-.4.2-.1.1-.2.3-.2.4v9.1H150c-.2 0-.3.1-.4.2-.1.1-.2.3-.2.4v4.7c0 .2.1.3.2.4.1.1.3.2.4.2h5.5v22.7c0 2.9.7 5.2 2.3 6.7 1.6 1.5 3.8 2.2 6.6 2.2 2.1 0 3.7-.2 5-.8 1.2-.5 2.3-1.2 3.5-2.1.2-.2.3-.5.2-.8l-2.3-3.8zm30.6-27.6c-2.3-2.2-5.6-3.2-9.7-3.2-3 0-5.6.5-7.7 1.4-2.1 1-3.8 2.5-5.3 4.5-.1.1-.1.3-.1.5s.1.3.3.4l4 2.8c.3.2.6.1.8-.1.9-1.1 2-2 3.3-2.7 1.3-.7 2.7-1 4.2-1 2.3 0 3.9.6 5 1.8 1.1 1.1 1.7 3 1.7 5.8-2.2 0-4.5.2-6.8.6-2.6.4-4.9 1.1-7.1 2.1-2.2 1-4 2.4-5.4 4.1-1.5 1.8-2.2 4-2.2 6.6 0 1.9.4 3.6 1.1 5.1.7 1.5 1.7 2.7 2.9 3.6 1.2 1 2.5 1.7 4.1 2.2 1.5.5 3.1.7 4.7.7 2 0 3.9-.3 5.6-1 1.3-.5 2.5-1.3 3.6-2.2l.2 1.8c0 .3.3.5.6.5h5.2c.2 0 .3-.1.4-.2.1-.1.2-.3.2-.4v-23.1c-.1-4.8-1.2-8.4-3.6-10.6m-3.4 15.8v10.1c-1 .9-2.2 1.6-3.6 2.3-1.4.7-2.9 1-4.5 1-.7 0-1.5-.1-2.3-.3-.7-.2-1.4-.5-2-1-.6-.5-1.1-1.1-1.5-1.8-.4-.7-.6-1.5-.6-2.6 0-1.7.5-2.9 1.4-3.9.9-1 2.1-1.8 3.6-2.3 1.5-.6 3.2-.9 4.9-1.1 1.6-.2 3.1-.3 4.6-.4M188 70.6c10.8-10.9 17.4-26.1 17.4-42.7V16.1c0-7.4-6-13.3-13.3-13.3-7.4 0-13.3 6-13.3 13.3v11.7c0 9.5-3.7 17.9-9.8 24.1-6.1 6.1-14.2 9.8-23.3 9.8-9.1 0-17.2-3.7-23.3-9.8-6-6.2-9.8-14.6-9.8-24.1V16.1c0-7.4-6-13.3-13.3-13.3C92 2.8 86 8.8 86 16.1v11.7c0 16.6 6.6 31.8 17.4 42.7 7.8 7.9 17.8 13.7 29 16.3v28c-11.2 2.6-21.2 8.4-29 16.3-10.7 11-17.4 26.2-17.4 42.8v11.7c0 7.3 6 13.3 13.3 13.3 7.4 0 13.3-6 13.3-13.3v-11.7c0-9.5 3.7-17.9 9.8-24.1 6.1-6.1 14.2-9.8 23.3-9.8 9.1 0 17.2 3.7 23.3 9.8 6 6.1 9.8 14.6 9.8 24.1v11.7c0 7.3 6 13.3 13.3 13.3 7.4 0 13.3-6 13.3-13.3v-11.7c0-16.6-6.6-31.8-17.4-42.7-7.8-7.9-17.8-13.7-29-16.3v-28c11.2-2.6 21.3-8.4 29-16.3"/><path class="st0" d="M145.7 196.1c12.7 0 23.1-10.3 23.1-23.1 0-12.7-10.3-23.1-23.1-23.1-12.7 0-23.1 10.3-23.1 23.1.1 12.8 10.4 23.1 23.1 23.1"/></svg>