<svg id="Слой_1" xmlns="http://www.w3.org/2000/svg" xmlns:xlink="http://www.w3.org/1999/xlink" viewBox="127 -5.2 370.1 78.2"><style>.st0,.st1{clip-path:url(#SVGID_2_);fill:#fff}.st1{clip-path:url(#SVGID_4_)}.st2,.st3{clip-path:url(#SVGID_6_);fill:#fff}.st3{clip-path:url(#SVGID_8_)}.st4{clip-path:url(#SVGID_10_)}.st4,.st5,.st6{fill:#4692c2}.st5{clip-path:url(#SVGID_12_)}.st6{clip-path:url(#SVGID_14_)}.st7{clip-path:url(#SVGID_16_);fill:url(#SVGID_17_)}.st8{clip-path:url(#SVGID_19_);fill:url(#SVGID_20_)}.st10,.st9{fill:#fff}.st9{clip-path:url(#SVGID_22_)}.st10{clip-path:url(#SVGID_24_)}</style><defs><path id="SVGID_1_" d="M127-5.2h370.1V73H127z"/></defs><clipPath id="SVGID_2_"><use xlink:href="#SVGID_1_" overflow="visible"/></clipPath><path class="st0" d="M250.6-3.8c-5 0-9.4.4-14.6 1.4l-1.4.2v51h8.4V30.4h7.6c12.4 0 19.5-6.2 19.5-17.1S263-3.8 250.6-3.8m-7.6 8c2.4-.3 4.4-.4 7.3-.4 7.3 0 11.2 3.3 11.2 9.5s-3.9 9.5-11.2 9.5H243V4.2z"/><defs><path id="SVGID_3_" d="M127-5.2h370.1V73H127z"/></defs><clipPath id="SVGID_4_"><use xlink:href="#SVGID_3_" overflow="visible"/></clipPath><path class="st1" d="M279.3-5.2h8.2v54h-8.2z"/><defs><path id="SVGID_5_" d="M127-5.2h370.1V73H127z"/></defs><clipPath id="SVGID_6_"><use xlink:href="#SVGID_5_" overflow="visible"/></clipPath><path class="st2" d="M313.3 7.8c-4.3 0-11.5 1.3-11.8 1.4l-1.4.3v7.8l2-.4c.1 0 7.3-1.3 11.2-1.3 6.8 0 7.9 1.9 7.9 6.4v2.3h-9.1c-11.5 0-15.6 6.6-15.6 12.8 0 5.7 2.7 12.5 15.6 12.5 3.1 0 9.3-.3 16.1-2.1l1.2-.3V21.9c0-12.5-8.6-14.1-16.1-14.1m-1.2 34.3c-4.7 0-7.3-1.8-7.3-5 0-3.5 2.8-5.4 7.8-5.4h8.6v9.7c-2.5.3-6.5.7-9.1.7"/><defs><path id="SVGID_7_" d="M127-5.2h370.1V73H127z"/></defs><clipPath id="SVGID_8_"><use xlink:href="#SVGID_7_" overflow="visible"/></clipPath><path class="st3" d="M353.4 41.6c-1.9 0-3.2-.3-3.2-4.9V16h10V8.7h-10V-1L342 2.3v6.4h-5.7V16h5.7v20.7c0 8.6 3.4 12.8 10.3 12.8 2.1 0 4.3-.3 6.9-1l1.2-.3v-7.7l-2 .4c-1.7.3-3.8.7-5 .7"/><defs><path id="SVGID_9_" d="M127-5.2h370.1V73H127z"/></defs><clipPath id="SVGID_10_"><use xlink:href="#SVGID_9_" overflow="visible"/></clipPath><path class="st4" d="M399.6 21.6c3.5-2.4 5.3-6.1 5.3-10.6 0-6.7-3.2-14.7-18.5-14.7-5.2 0-9.9.5-14.4 1.6l-1.3.3v49.1l1.3.3c5 1.1 10 1.7 15.3 1.7 16.1 0 19.5-8.5 19.5-15.6 0-5.1-2.8-9.7-7.2-12.1m-11.9 20.1c-3.7 0-6.6-.4-8.5-.7V26.1h7.7c10.1 0 11.4 4 11.4 7.5-.1 5.3-3.8 8.1-10.6 8.1m-.9-23.1h-7.7V4.4c2.3-.4 4.9-.7 7.7-.7 6.2 0 9.6 2.6 9.6 7.4s-3.4 7.5-9.6 7.5"/><defs><path id="SVGID_11_" d="M127-5.2h370.1V73H127z"/></defs><clipPath id="SVGID_12_"><use xlink:href="#SVGID_11_" overflow="visible"/></clipPath><path class="st5" d="M434.8 7.8c-11.4 0-20.1 8.9-20.1 20.8 0 12 8.6 21 20.1 21 11.4 0 20-9 20-21 0-11.9-8.6-20.8-20-20.8m0 34.3c-7.5 0-11.6-7-11.6-13.6s4-13.4 11.6-13.4 11.5 6.7 11.5 13.4c0 6.8-4 13.6-11.5 13.6"/><defs><path id="SVGID_13_" d="M127-5.2h370.1V73H127z"/></defs><clipPath id="SVGID_14_"><use xlink:href="#SVGID_13_" overflow="visible"/></clipPath><path class="st6" d="M482.4 27.7l13.3-19h-9.6L477.6 21l-8.4-12.3h-9.7l13.3 19-14.7 21.1h9.6l9.9-14.4 9.8 14.4h9.7z"/><defs><path id="SVGID_15_" d="M152.3-3.6c-1.5.8-2.9 2.6-2.9 2.6l-20.7 30s-1.5 2-1.6 5c-.2 2.7 1.5 5.5 1.5 5.5L147 69.1s1.2 1.6 2.7 2.6c1.6 1.1 4.6 1.2 4.6 1.2l36.5.1-25.6-38.9 27.2-38.4-36-.1h-.2c-.6 0-2.4.1-3.9.8"/></defs><clipPath id="SVGID_16_"><use xlink:href="#SVGID_15_" overflow="visible"/></clipPath><linearGradient id="SVGID_17_" gradientUnits="userSpaceOnUse" x1="254.061" y1="-11.979" x2="255.061" y2="-11.979" gradientTransform="rotate(-90 11061.037 9915.887) scale(82.2721)"><stop offset="0" stop-color="#4692c2"/><stop offset=".454" stop-color="#094288"/><stop offset=".521" stop-color="#094288"/><stop offset=".528" stop-color="#3b639d"/><stop offset=".693" stop-color="#4692c2"/><stop offset="1" stop-color="#80cfe3"/></linearGradient><path class="st7" d="M126.9-4.4h65.5V73h-65.5z"/><defs><path id="SVGID_18_" d="M187.9-2l-17.2 24.1-4.6 6.4s-1.7 2.5-1.7 5.6c0 3.6 1.4 5.6 1.4 5.6l4.9 7.4 15.9 23.7s1.5 2.2 4.2 2.2c2.6 0 3.9-1.8 3.9-1.8L213.5 40s1.7-2.8 2-5.9c.3-3.1-1.1-5.9-1.1-5.9L196.6-2s-1.4-2.5-4.4-2.5c-2.8.1-4.3 2.5-4.3 2.5"/></defs><clipPath id="SVGID_19_"><use xlink:href="#SVGID_18_" overflow="visible"/></clipPath><radialGradient id="SVGID_20_" cx="251.015" cy="-10.552" r="1" gradientTransform="translate(-10511.617 481.164) scale(42.5411)" gradientUnits="userSpaceOnUse"><stop offset="0" stop-color="#fff"/><stop offset=".086" stop-color="#fff"/><stop offset=".15" stop-color="#fbfdfe"/><stop offset=".215" stop-color="#eff9fb"/><stop offset=".28" stop-color="#dbf1f7"/><stop offset=".346" stop-color="#bfe7f1"/><stop offset=".38" stop-color="#ace0ec"/><stop offset=".425" stop-color="#99d0e4"/><stop offset=".517" stop-color="#68abd0"/><stop offset=".577" stop-color="#4592c2"/><stop offset=".736" stop-color="#094288"/><stop offset="1" stop-color="#051e42"/></radialGradient><path class="st8" d="M164.4-4.4h51.4v77.5h-51.4z"/><defs><path id="SVGID_21_" d="M127-5.2h370.1V73H127z"/></defs><clipPath id="SVGID_22_"><use xlink:href="#SVGID_21_" overflow="visible"/></clipPath><path class="st9" d="M187.6 71.4l-19.4-31.7s-1.3-2-1.3-5.5c0-3.1 1.6-5.6 1.6-5.6l20.4-31.2s1-2.1 4.4-1.7c-.4-.1-.8-.1-1.4-.1-2.7 0-4.2 2.4-4.2 2.4l-21.9 30.5s-1.7 2.5-1.7 5.6c0 3.6 1.4 5.6 1.4 5.6l20.9 31.1s1.5 2.2 4.2 2.2c.5 0 1-.1 1.5-.2-1.9.4-3.4-.5-4-1-.3-.1-.5-.4-.5-.4"/><defs><path id="SVGID_23_" d="M127-5.2h370.1V73H127z"/></defs><clipPath id="SVGID_24_"><use xlink:href="#SVGID_23_" overflow="visible"/></clipPath><path class="st10" d="M188.3 71.4l-19.4-31.7s-1.3-2-1.3-5.5c0-3.1 1.6-5.6 1.6-5.6l20.4-31.2s1-2.1 4.4-1.7c-.4-.1-.8-.1-1.4-.1-3.3 0-4.2 2.4-4.2 2.4l-21.9 30.5s-1.7 2.5-1.7 5.6c0 3.6 1.4 5.6 1.4 5.6l20.9 31.1s1.5 2.2 4.2 2.2c.5 0 1.1-.1 1.5-.2-1.9.4-3.4-.5-4-1-.3-.1-.5-.4-.5-.4"/><defs><path id="SVGID_25_" d="M127-5.2h370.1V73H127z"/></defs><clipPath id="SVGID_26_"><use xlink:href="#SVGID_25_" overflow="visible"/></clipPath><defs><path id="SVGID_27_" d="M127-5.2h370.1V73H127z"/></defs><clipPath id="SVGID_28_"><use xlink:href="#SVGID_27_" overflow="visible"/></clipPath><defs><path id="SVGID_29_" d="M127-5.2h370.1V73H127z"/></defs><clipPath id="SVGID_30_"><use xlink:href="#SVGID_29_" overflow="visible"/></clipPath><defs><path id="SVGID_31_" d="M127-5.2h370.1V73H127z"/></defs><clipPath id="SVGID_32_"><use xlink:href="#SVGID_31_" overflow="visible"/></clipPath><defs><path id="SVGID_33_" d="M127-5.2h370.1V73H127z"/></defs><clipPath id="SVGID_34_"><use xlink:href="#SVGID_33_" overflow="visible"/></clipPath><defs><path id="SVGID_35_" d="M127-5.2h370.1V73H127z"/></defs><clipPath id="SVGID_36_"><use xlink:href="#SVGID_35_" overflow="visible"/></clipPath><defs><path id="SVGID_37_" d="M127-5.2h370.1V73H127z"/></defs><clipPath id="SVGID_38_"><use xlink:href="#SVGID_37_" overflow="visible"/></clipPath><defs><path id="SVGID_39_" d="M127-5.2h370.1V73H127z"/></defs><clipPath id="SVGID_40_"><use xlink:href="#SVGID_39_" overflow="visible"/></clipPath><defs><path id="SVGID_41_" d="M127-5.2h370.1V73H127z"/></defs><clipPath id="SVGID_42_"><use xlink:href="#SVGID_41_" overflow="visible"/></clipPath><defs><path id="SVGID_43_" d="M127-5.2h370.1V73H127z"/></defs><clipPath id="SVGID_44_"><use xlink:href="#SVGID_43_" overflow="visible"/></clipPath><defs><path id="SVGID_45_" d="M127-5.2h370.1V73H127z"/></defs><clipPath id="SVGID_46_"><use xlink:href="#SVGID_45_" overflow="visible"/></clipPath><defs><path id="SVGID_47_" d="M127-5.2h370.1V73H127z"/></defs><clipPath id="SVGID_48_"><use xlink:href="#SVGID_47_" overflow="visible"/></clipPath><defs><path id="SVGID_49_" d="M127-5.2h370.1V73H127z"/></defs><clipPath id="SVGID_50_"><use xlink:href="#SVGID_49_" overflow="visible"/></clipPath><defs><path id="SVGID_51_" d="M127-5.2h370.1V73H127z"/></defs><clipPath id="SVGID_52_"><use xlink:href="#SVGID_51_" overflow="visible"/></clipPath><defs><path id="SVGID_53_" d="M127-5.2h370.1V73H127z"/></defs><clipPath id="SVGID_54_"><use xlink:href="#SVGID_53_" overflow="visible"/></clipPath><defs><path id="SVGID_55_" d="M127-5.2h370.1V73H127z"/></defs><clipPath id="SVGID_56_"><use xlink:href="#SVGID_55_" overflow="visible"/></clipPath><defs><path id="SVGID_57_" d="M127-5.2h370.1V73H127z"/></defs><clipPath id="SVGID_58_"><use xlink:href="#SVGID_57_" overflow="visible"/></clipPath><defs><path id="SVGID_59_" d="M127-5.2h370.1V73H127z"/></defs><clipPath id="SVGID_60_"><use xlink:href="#SVGID_59_" overflow="visible"/></clipPath><defs><path id="SVGID_61_" d="M127-5.2h370.1V73H127z"/></defs><clipPath id="SVGID_62_"><use xlink:href="#SVGID_61_" overflow="visible"/></clipPath><defs><path id="SVGID_63_" d="M127-5.2h370.1V73H127z"/></defs><clipPath id="SVGID_64_"><use xlink:href="#SVGID_63_" overflow="visible"/></clipPath></svg>